<?xml version="1.0" encoding="UTF-8" standalone="no"?>
<!-- Created with Inkscape (http://www.inkscape.org/) -->

<svg
   xmlns:dc="http://purl.org/dc/elements/1.1/"
   xmlns:cc="http://creativecommons.org/ns#"
   xmlns:rdf="http://www.w3.org/1999/02/22-rdf-syntax-ns#"
   xmlns:svg="http://www.w3.org/2000/svg"
   xmlns="http://www.w3.org/2000/svg"
   xmlns:sodipodi="http://sodipodi.sourceforge.net/DTD/sodipodi-0.dtd"
   xmlns:inkscape="http://www.inkscape.org/namespaces/inkscape"
   version="1.1"
   id="svg2"
   width="588.06232"
   height="62.084129"
   viewBox="0 0 588.06232 62.084129"
   sodipodi:docname="Hindustan Times 2009.svg"
   inkscape:version="0.92.4 (5da689c313, 2019-01-14)">
  <metadata
     id="metadata8">
    <rdf:RDF>
      <cc:Work
         rdf:about="">
        <dc:format>image/svg+xml</dc:format>
        <dc:type
           rdf:resource="http://purl.org/dc/dcmitype/StillImage" />
        <dc:title></dc:title>
      </cc:Work>
    </rdf:RDF>
  </metadata>
  <defs
     id="defs6" />
  <sodipodi:namedview
     pagecolor="#ffffff"
     bordercolor="#666666"
     borderopacity="1"
     objecttolerance="10"
     gridtolerance="10"
     guidetolerance="10"
     inkscape:pageopacity="0"
     inkscape:pageshadow="2"
     inkscape:window-width="1366"
     inkscape:window-height="706"
     id="namedview4"
     showgrid="false"
     inkscape:zoom="0.47333333"
     inkscape:cx="-137.95659"
     inkscape:cy="138.85915"
     inkscape:window-x="-8"
     inkscape:window-y="32"
     inkscape:window-maximized="1"
     inkscape:current-layer="svg2" />
  <g
     id="g12"
     transform="translate(-6.9706738,-3.9158715)">
    <path
       style="fill:#a4cbe1"
       d="M 56,44.5 V 23 h 8 8 V 44.5 66 h -8 -8 z m 77.6838,20.051188 C 125.51031,61.636154 122.04392,55.515961 122.04392,44 c 0,-12.061121 4.12873,-18.623042 13.26553,-21.083325 4.54604,-1.224123 10.88293,-0.567115 14.96713,1.551791 L 153,25.881394 V 14.940697 4 h 8 8 V 34.5 65 h -7.91667 c -4.35416,0 -8.06666,-0.437092 -8.25,-0.971315 -0.20039,-0.583938 -1.9286,-0.402035 -4.33333,0.456107 -5.02472,1.7931 -9.91325,1.815007 -14.8162,0.0664 z M 150.54545,53.545455 C 152.68998,51.400932 153,50.195286 153,44 c 0,-6.195286 -0.31002,-7.400932 -2.45455,-9.545455 -2.94434,-2.944345 -6.47461,-3.142243 -9.68467,-0.542898 C 138.72808,35.638606 138.5,36.613263 138.5,44 c 0,7.386737 0.22808,8.361394 2.36078,10.088353 3.21006,2.599345 6.74033,2.401447 9.68467,-0.542898 z m 29.48918,11.148103 c -1.98002,-0.681966 -4.44463,-2.649984 -5.75,-4.591441 C 172.12992,56.897466 172,55.74588 172,39.852117 V 23 h 7.97327 7.97326 l 0.27674,14.713105 c 0.27649,14.700361 0.27899,14.714373 2.8895,16.178163 2.15598,1.208924 3.13857,1.247265 5.62028,0.219307 C 201.17377,52.271166 202,49.344349 202,35.452947 V 23 h 8.13167 8.13167 l -0.53956,4.022719 -0.53956,4.022719 3.41234,-2.996079 C 227.7769,21.744937 243.64148,20.225641 252.9112,24.954697 256.99206,27.036595 257,27.036722 257,25.020324 257,23.442186 257.65661,23 260,23 c 2.9211,0 3,-0.127602 3,-4.851579 v -4.85158 l 6.75,-1.802296 c 3.7125,-0.991262 7.3125,-2.0061967 8,-2.2554091 0.92525,-0.3353941 1.25,1.3932901 1.25,6.6538751 V 23 h 3.5 3.5 v 5.5 5.5 h -3.53621 -3.53621 l 0.28621,9.75 c 0.27151,9.249322 0.40175,9.766409 2.53621,10.069551 1.7777,0.252474 2.25078,-0.167344 2.25374,-2 0.0112,-6.926202 7.70421,-11.808608 20.99626,-13.325313 8.93381,-1.019404 11.58514,-2.084265 9.98625,-4.010811 -1.84281,-2.22045 -10.73861,-1.931814 -14.68852,0.476589 l -3.20228,1.95254 -4.54772,-2.541773 C 290.04648,32.972808 288,31.457486 288,31.003399 c 0,-1.485614 5.86617,-5.802399 9.7246,-7.156114 6.02963,-2.115478 19.98937,-1.746744 24.71087,0.652715 6.77855,3.444852 7.99497,6.102293 8.56453,18.710333 0.4673,10.344495 0.64713,11.122433 2.75,11.896738 L 336,55.935552 V 39.467776 23 h 8 c 7.13876,0 8,0.200669 8,1.863991 0,1.747268 0.2924,1.715958 4.66948,-0.5 7.6962,-3.896315 18.30206,-2.52103 22.55828,2.925182 l 1.72777,2.210827 0.0222,-3.25 C 380.99859,23.206616 381.22251,23 384.5,23 h 3.5 v -4.845864 -4.845863 l 7.41368,-2.154137 C 399.49121,9.9693614 403.09121,9 403.41368,9 403.73616,9 404,12.15 404,16 v 7 h 12 12 v 21.48134 21.481341 l -15.32374,-0.0211 C 389.40902,65.909544 388.03863,64.787533 388.01474,45.75 L 388,34 h -3 -3 V 49.5 65 h -8 -8 V 50.7 c 0,-9.788889 -0.37855,-14.678555 -1.2,-15.5 -1.31391,-1.313913 -7.64508,-1.606678 -9.4003,-0.434687 C 352.73628,36.543729 352,40.379031 352,52.474468 v 12.605951 l -9.75,0.09094 c -5.3625,0.05002 -12.32543,0.144425 -15.47317,0.209791 -4.58495,0.09521 -6.14134,-0.299509 -7.82579,-1.984716 -2.06462,-2.065552 -2.16682,-2.070826 -5.65611,-0.291885 -7.71895,3.935341 -19.10587,3.608302 -24.22081,-0.695636 l -2.93538,-2.469965 -0.31937,2.780525 c -0.30647,2.668249 -0.56862,2.792465 -6.49209,3.076235 C 265.98874,66.43471 263,62.633895 263,45.032119 V 34 h -3.37427 c -1.85585,0 -5.2983,0.678835 -7.64988,1.508522 -4.04044,1.425549 -4.35145,1.400244 -5.65447,-0.460079 C 243.65305,31.238871 234,31.198169 234,34.99649 c 0,1.870905 1.9744,2.497523 14.5,4.601894 11.52633,1.936486 16.5096,9.681013 11.929,18.538912 -4.70186,9.092396 -30.49053,10.571918 -40.30639,2.312419 l -3.0104,-2.533082 0.57474,3.541684 L 218.26168,65 h -8.13084 C 203.3295,65 202,64.737236 202,63.393011 c 0,-1.146484 -0.50149,-1.394344 -1.75,-0.86494 -8.78309,3.724275 -14.05115,4.288593 -20.21537,2.165487 z m 63.03111,-9.728742 c 2.25195,-1.205208 2.50253,-3.248304 0.59278,-4.833256 -0.73781,-0.612331 -5.10106,-1.82651 -9.69611,-2.698175 -8.94235,-1.696336 -13.72645,-3.654911 -14.62085,-5.98567 -1.14455,-2.982651 -1.84156,-1.260892 -1.84156,4.549026 0,3.298717 0.26598,5.998925 0.59107,6.000463 0.32509,0.0015 2.80009,-0.666896 5.5,-1.48541 4.87477,-1.477848 4.92213,-1.470288 6.80524,1.086347 2.99254,4.062882 8.58952,5.550178 12.66943,3.366675 z m 67.09415,0.0075 c 2.78054,-0.772306 3.9218,-1.767877 4.75,-4.143647 1.55457,-4.459449 1.4132,-4.829542 -1.65989,-4.34552 -1.5125,0.238224 -4.43203,0.696339 -6.48785,1.018034 -3.91771,0.613044 -6.19782,3.199922 -5.17342,5.869463 0.49452,1.288686 1.51306,1.867724 4.41127,2.507791 0.275,0.06073 2.14695,-0.347021 4.15989,-0.906121 z M 411,44.5 V 34 h -3.53621 -3.53621 l 0.28621,9.742275 0.28621,9.742275 3,0.63941 c 1.65,0.351676 3.1125,0.692652 3.25,0.757725 C 410.8875,54.946758 411,50.275 411,44.5 Z M 520.64317,64.95655 C 515.15145,63.575817 511.77318,61.342243 508.95429,57.228338 506.76552,54.034044 506.5,52.602408 506.5,43.995427 c 0,-9.036044 0.17895,-9.885727 2.80793,-13.3325 3.62052,-4.746738 9.17865,-7.535408 16.55574,-8.306467 8.91592,-0.931898 15.58226,1.036838 20.64132,6.095896 l 4.1733,4.173305 1.64177,-2.860619 c 3.30474,-5.758164 16.91458,-9.103721 27.82239,-6.839269 C 585.4593,24.029546 594,29.648162 594,32.042148 c 0,0.487466 -2.8125,1.727465 -6.25,2.755554 l -6.25,1.869254 -2.82673,-2.333478 c -3.30725,-2.730157 -8.79241,-3.099772 -10.76308,-0.725265 -2.0123,2.424669 0.69487,3.895772 9.8443,5.349502 C 591.13098,41.083071 595,44.0091 595,52 c 0,5.543693 -1.81658,8.332939 -7.31608,11.233376 -3.49102,1.841165 -5.84002,2.21157 -14.18392,2.236612 -11.21308,0.03365 -15.94956,-1.219236 -20.4293,-5.403949 -2.97218,-2.776424 -3.01596,-2.783996 -4.78516,-0.82764 -4.78831,5.29483 -18.2501,8.079562 -27.64237,5.718151 z M 534.17126,54.345012 C 535.17707,53.434769 536,52.076196 536,51.32596 c 0,-0.884423 0.79116,-1.202069 2.25,-0.903362 5.64624,1.156105 14.66894,1.561166 16.84918,0.756421 C 560.44826,49.20462 563,48.929107 563,50.32596 c 0,3.497803 7.3107,6.565828 12.52627,5.256804 2.11713,-0.531366 2.54172,-1.15664 2.28679,-3.367642 -0.29664,-2.572724 -0.78508,-2.808911 -9.31306,-4.503404 -4.95,-0.983556 -10.61666,-2.626908 -12.59257,-3.651895 L 552.31485,42.196211 552.774,44.598106 553.23315,47 h -16.22356 c -14.38293,0 -16.1547,0.179461 -15.61658,1.581787 0.33385,0.869984 0.60699,1.994984 0.60699,2.5 0,0.505017 0.9,1.818213 2,2.918213 2.44534,2.445338 7.65515,2.622057 10.17126,0.345012 z M 537,37 c 0,-2.258874 -4.11169,-5 -7.5,-5 -3.38831,0 -7.5,2.741126 -7.5,5 0,0.577778 3.16667,1 7.5,1 4.33333,0 7.5,-0.422222 7.5,-1 z M 7.2353369,34.75 7.5,4.5 15.25,4.2079357 23,3.9158715 V 15.321926 26.727981 l 4.669478,-2.36399 C 33.413817,21.455836 39.908803,21.32174 45.787639,23.989922 52.197814,26.899258 53,29.6774 53,48.967881 V 65 H 45 37 V 50.7 C 37,40.911111 36.621445,36.021445 35.8,35.2 35.14,34.54 32.922661,34 30.87258,34 c -2.835722,0 -4.223236,0.630328 -5.8,2.634859 C 23.219744,38.990358 23,40.633738 23,52.134859 V 65 H 14.985337 6.9706738 Z M 75,44 V 23 h 8 c 7.525121,0 8,0.12792 8,2.154988 0,1.968011 0.151838,2.022362 1.75,0.626427 4.846931,-4.233614 16.97388,-4.837897 22.07449,-1.099965 5.31743,3.896827 6.17225,7.298479 6.17396,24.56855 L 121,65 h -8 -8 V 51.434259 c 0,-7.461158 -0.46583,-14.436158 -1.03518,-15.5 C 102.51738,33.229694 95.729609,33.270391 93,36 91.197531,37.802469 91,39.333333 91,51.5 V 65 h -8 -8 z m 355,0 V 23 h 8 c 7.28759,0 8,0.175098 8,1.966275 0,1.942141 0.0423,1.941323 3.44552,-0.06663 1.89503,-1.118097 5.83253,-2.264554 8.75,-2.547681 4.34914,-0.422066 6.18098,-0.06372 10.17123,1.989726 l 4.86675,2.504503 4.13325,-2.173097 c 5.47267,-2.877309 16.86094,-3.064379 21.01102,-0.345139 5.29536,3.469653 6.57576,8.401304 6.60027,25.422043 L 505,65 h -8 -8 V 51.434259 c 0,-7.461158 -0.46583,-14.436158 -1.03518,-15.5 -0.74114,-1.384827 -2.09039,-1.929909 -4.75,-1.918946 C 476.04809,34.044855 475,36.394845 475,52.434259 V 65 H 467.5 460 V 51.434259 c 0,-7.461158 -0.46583,-14.436158 -1.03518,-15.5 -0.74114,-1.384827 -2.09039,-1.929909 -4.75,-1.918946 C 447.04809,34.044855 446,36.394845 446,52.434259 V 65 h -8 -8 z M 58.454545,18.545455 c -3.07099,-3.070991 -3.11295,-5.578287 -0.140094,-8.371141 4.582845,-4.3053592 13.70159,-1.8823696 13.670236,3.63239 -0.01849,3.252711 -0.79417,4.530428 -3.668946,6.043592 -3.48808,1.835982 -7.213295,1.343059 -9.861196,-1.304841 z M 413.63486,18.92742 C 408.40975,14.817346 411.61811,8 418.77749,8 423.73728,8 427,10.334153 427,13.88239 c 0,6.174258 -8.06115,9.217153 -13.36514,5.04503 z"
       id="path26"
       inkscape:connector-curvature="0" />
    <path
       style="fill:#a0a0a0"
       d="M 56,44.5 V 23 h 8 8 V 44.5 66 h -8 -8 z m 79.1228,20.548348 c -7.96094,-1.998436 -12.1649,-7.904494 -12.89558,-18.11673 -0.95699,-13.375126 3.82565,-21.70492 13.67488,-23.817201 5.38993,-1.155935 9.93841,-0.66327 14.3479,1.554082 L 153,26.05136 V 14.983616 3.9158715 L 160.75,4.2079357 168.5,4.5 168.76466,34.75 169.02933,65 h -8.01467 C 154.749,65 153,64.689389 153,63.576645 c 0,-1.23082 -0.38557,-1.231006 -2.85044,-0.0014 -3.7102,1.850894 -10.76622,2.542596 -15.02676,1.473073 z M 150.92742,53.365141 C 152.57007,51.276855 153,49.296755 153,43.819687 153,37.815844 152.67793,36.587025 150.54545,34.454545 149.19545,33.104545 146.925,32 145.5,32 c -1.425,0 -3.69545,1.104545 -5.04545,2.454545 C 138.32207,36.587025 138,37.815844 138,43.819687 138,52.390486 140.22255,56 145.5,56 c 2.43322,0 3.92421,-0.723833 5.42742,-2.634859 z M 181.9416,65.10681 C 173.00668,62.20338 172,59.569837 172,39.098871 V 23 h 7.42623 7.42622 l 0.32378,14.582742 c 0.29327,13.208917 0.51219,14.722982 2.32377,16.071347 1.29044,0.960477 3.21716,1.297801 5.43075,0.950798 6.07734,-0.952692 6.53307,-2.118485 6.89483,-17.637743 L 202.15117,23 H 209.57558 217 l 0.0111,4.75 0.0111,4.75 2.49996,-3.171513 c 3.5944,-4.559935 10.28084,-6.822133 19.97786,-6.75903 7.36214,0.04791 9.90333,0.686794 16.75,4.211144 0.4125,0.212336 0.75,-0.551434 0.75,-1.697268 C 257,23.443798 257.6274,23 259.94521,23 c 2.80065,0 2.96017,-0.231373 3.25,-4.713961 l 0.30479,-4.71396 6,-1.809875 c 3.3,-0.995431 6.7875,-2.0544732 7.75,-2.353427 1.55286,-0.4823212 1.75,0.252589 1.75,6.523835 V 23 h 3.5 3.5 v 5.5 5.5 h -3.53621 -3.53621 l 0.28621,9.75 c 0.2665,9.078589 0.43279,9.77091 2.41485,10.053648 1.71636,0.244836 2.25141,-0.350712 2.76246,-3.074839 1.28588,-6.854338 8.32745,-10.789844 21.90779,-12.244175 7.41694,-0.794287 10.16775,-2.185195 8.75473,-4.426705 -1.40255,-2.2249 -10.24946,-1.729949 -14.56233,0.814707 l -3.56706,2.10462 -4.21212,-2.623178 c -2.31666,-1.442747 -4.39685,-2.784871 -4.62265,-2.982497 -0.98492,-0.862052 3.47263,-4.372657 8.23184,-6.483095 6.82676,-3.027276 20.2313,-3.277201 25.94839,-0.483802 6.68229,3.264996 8.16219,6.533011 8.58767,18.963905 0.33001,9.64157 0.58674,10.934784 2.2575,11.371698 C 334.63293,55.137273 335,56.172199 335,60.055358 v 4.822096 l -4.42502,0.663572 c -4.69497,0.704055 -10.63807,-0.707194 -12.51816,-2.972564 -0.90827,-1.094394 -1.74027,-1.00442 -4.70928,0.509267 -7.78511,3.969076 -20.1504,3.335006 -25.06868,-1.285478 L 286,59.651372 v 2.655262 c 0,3.272864 -2.83592,4.196525 -10.46657,3.408971 C 265.15665,64.644628 263.67125,62.305209 263.17385,46.25 L 262.79435,34 h -3.27145 c -1.7993,0 -5.12766,0.65491 -7.39636,1.455355 -3.99065,1.407983 -4.2067,1.373578 -6.63721,-1.056936 -2.03615,-2.036152 -3.3156,-2.454121 -6.75081,-2.205356 -3.46693,0.251062 -4.29464,0.700896 -4.54682,2.471047 -0.34916,2.451011 0.24503,2.713487 9.8083,4.332656 9.69437,1.641365 12.67195,2.824659 15.46727,6.146711 5.00279,5.94547 2.51058,14.228603 -5.44543,18.09847 -3.68305,1.79147 -6.28406,2.201109 -14.02184,2.208329 -10.4091,0.0097 -15.45896,-1.282699 -20.0254,-5.125106 L 217,57.822213 V 61.411106 65 h -7.5 c -6.79045,0 -7.5,-0.186022 -7.5,-1.966275 0,-1.947805 -0.0307,-1.948138 -3.27245,-0.03548 -3.71365,2.191107 -12.9583,3.352372 -16.78595,2.108565 z m 61.47661,-9.713799 c 1.72895,-0.663461 2.16967,-4.911648 0.60957,-5.87584 -0.53472,-0.330475 -4.585,-1.236053 -9.00062,-2.012396 -9.72632,-1.710054 -14.63078,-3.902346 -16.52407,-7.38625 -1.34257,-2.470504 -1.42528,-2.208693 -1.46305,4.631475 -0.0447,8.094537 -0.14,8.017351 7.16231,5.801349 4.44302,-1.348306 4.73633,-1.319912 5.31867,0.514867 1.17136,3.690626 9.11222,6.16296 13.89719,4.326795 z m 68.50435,-0.852963 c 2.5492,-1.318246 4.02642,-3.951102 4.06379,-7.242933 0.01,-0.857872 -1.49216,-1.03884 -5.23635,-0.630945 -6.17364,0.672562 -9.75,2.619272 -9.75,5.307193 0,3.799563 5.87068,5.179111 10.92256,2.566685 z M 7.7782863,34.500546 8.0565726,4 H 15.528286 23 v 11.466275 11.466274 l 3.75,-2.216274 C 31.463987,21.930277 41.848988,21.681107 46.615155,24.239645 52.060962,27.163021 53,30.790058 53,48.901129 V 65 H 45.5 38 V 52.5651 C 38,39.164433 37.263404,35.746521 33.998899,33.999411 30.951647,32.368571 25.147359,34.482217 23.937982,37.66312 23.422092,39.020013 23,45.725904 23,52.5651 V 65 l -7.75,5.46e-4 -7.75,5.45e-4 z M 75,44 V 23 h 8 c 7.287595,0 8,0.175098 8,1.966275 0,1.910588 0.106203,1.903508 3.75,-0.25 4.861851,-2.873386 15.46043,-3.118866 19.53005,-0.452348 5.64429,3.69828 6.19118,5.695748 6.55424,23.938662 L 121.16858,65 H 113.08429 105 V 50.622445 C 105,34.523228 104.63541,33.6 98.277711,33.6 91.982297,33.6 91,36.030977 91,51.610784 V 65 H 83 75 Z M 336.14076,43.999123 335.78151,23 h 8.10925 C 351.28697,23 352,23.172891 352,24.966275 c 0,1.910588 0.1062,1.903508 3.75,-0.25 C 358.59354,23.035722 361.08182,22.5 366.04398,22.5 c 7.43519,0 10.86865,1.66874 14.00002,6.804334 l 1.94852,3.195666 0.004,-4.75 c 0.004,-4.61028 0.092,-4.75 3.00374,-4.75 2.88488,0 3,-0.171131 3,-4.45982 v -4.45982 l 6.60534,-2.04018 C 398.23827,10.918081 401.61327,10 402.10534,10 402.5974,10 403,12.925 403,16.5 V 23 h 3.5 3.5 v 5.5 5.5 h -3.53621 -3.53621 l 0.28621,9.75 0.28621,9.75 3.25,0.956797 c 3.08156,0.907208 3.25,1.205215 3.25,5.75 V 65 h -6.95295 C 390.21445,65 388.77846,63.188157 388.1866,46.25 L 387.75856,34 H 384.87928 382 V 49.5 65 H 374.5 367 V 53.625 c 0,-13.985613 -0.62507,-17.333233 -3.60053,-19.282825 -1.91066,-1.251917 -2.95334,-1.314485 -5.86913,-0.352189 -1.95013,0.643602 -3.99224,2.004563 -4.53802,3.024358 C 352.44655,38.034139 352,44.748101 352,51.934259 V 65 l -7.75,-8.77e-4 -7.75,-8.77e-4 z M 412,44 V 23 l 7.75,-9.64e-4 7.75,-9.63e-4 -0.28861,21.000963 L 426.92278,65 H 419.46139 412 Z m 19,0 V 23 h 7.5 c 6.83333,0 7.5,0.177778 7.5,2 0,2.433815 -0.27379,2.433815 4.5,0 5.70729,-2.909744 14.1516,-2.72565 18.7711,0.409227 l 3.55019,2.409226 4.75884,-2.409226 c 6.16312,-3.120173 15.40293,-3.326683 20.12132,-0.449711 C 503.2991,28.372605 504,31.042276 504,48.95034 V 65 h -7 -7 V 52.5651 c 0,-12.130327 -0.90255,-17.247016 -3.31256,-18.779435 -2.19825,-1.397766 -6.3987,-0.80063 -9.05258,1.286915 -2.62115,2.061794 -2.63486,2.145062 -2.63486,16 V 65 h -7 -7 V 51.634859 c 0,-12.006958 -0.21062,-13.6329 -2.07258,-16 -2.5495,-3.241162 -6.60524,-3.462726 -10.29256,-0.562279 -2.62115,2.061794 -2.63486,2.145062 -2.63486,16 V 65 h -7.5 -7.5 z m 87.2564,19.882878 c -4.58798,-1.325 -9.96139,-7.077254 -11.32714,-12.125747 -1.56612,-5.789159 -0.60726,-14.778485 2.08786,-19.573811 3.22052,-5.73014 8.66274,-8.437643 18.05269,-8.981219 11.19755,-0.648216 17.68002,2.060515 22.03924,9.209202 1.20027,1.968304 1.88483,2.481734 1.88721,1.415422 0.007,-2.94809 4.88877,-7.599548 9.69561,-9.237402 5.43642,-1.852375 16.92154,-2.085037 22.36836,-0.453132 3.75282,1.124373 9.93977,5.897329 9.93977,7.668092 0,0.504363 -2.52101,1.634188 -5.60224,2.510721 -5.39767,1.535506 -5.70369,1.518686 -8.38089,-0.460653 -2.93895,-2.172859 -9.47959,-2.791629 -11.21065,-1.060571 -0.54658,0.546579 -0.8337,1.825017 -0.63804,2.840973 0.28458,1.477722 2.3676,2.252497 10.41417,3.873529 10.90527,2.196935 14.97704,4.202639 16.46228,8.109117 1.84032,4.84039 1.13886,8.399108 -2.34155,11.879525 -4.10571,4.105703 -8.95277,5.491922 -19.20308,5.491922 -10.22524,0 -15.09688,-1.385725 -19.16164,-5.450483 l -3.25548,-3.255485 -2.29144,2.49048 c -4.02528,4.374929 -9.45461,6.189855 -18.29144,6.114492 -4.4,-0.03753 -9.45962,-0.489762 -11.2436,-1.004972 z m 16.39829,-9.011261 C 535.39461,54.257538 536,53.094815 536,52.287786 c 0,-1.227069 1.35474,-1.354475 8.27385,-0.778116 5.27806,0.439659 9.82223,0.272276 12.55017,-0.462283 4.13557,-1.113593 4.37181,-1.049266 7.17774,1.954499 2.62985,2.81526 3.38774,3.077541 8.09684,2.802052 9.52296,-0.557105 8.82536,-6.889118 -0.90903,-8.251126 C 564.10747,46.561907 555.71431,44.012396 553.75,42.255364 552.12235,40.799467 552,40.910609 552,43.845012 V 47 h -15.5 c -15.02469,0 -15.5,0.06369 -15.5,2.076923 0,1.142308 1.36803,3.444952 3.04006,5.116987 2.52447,2.524463 3.56832,2.934415 6.1547,2.417139 1.71304,-0.342609 3.72001,-1.125354 4.45993,-1.739432 z M 537,37.07258 C 537,34.819355 532.54212,31 529.91219,31 526.8072,31 523.2703,33.11134 522.11027,35.657325 521.49962,36.997555 521,38.297932 521,38.547053 521,38.796174 524.6,39 529,39 c 7.23292,0 8,-0.184812 8,-1.92742 z M 58.454545,18.545455 C 55.459844,15.550753 55.387314,14.048622 58.07258,10.634859 59.68307,8.5874528 61.020795,8 64.07258,8 c 7.305054,0 10.582322,6.766493 5.292561,10.92742 -3.566328,2.805274 -7.874168,2.654462 -10.910596,-0.381965 z M 415.25,19.531828 C 412.47792,18.30761 412,17.583102 412,14.604978 c 0,-6.4228441 7.75748,-8.9384085 12.60756,-4.088329 5.56724,5.567244 -1.57784,12.450895 -9.35756,9.015179 z"
       id="path24"
       inkscape:connector-curvature="0" />
    <path
       style="fill:#807f7f"
       d="M 56.666667,65.333333 C 56.3,64.966667 56,55.291667 56,43.833333 V 23 h 8 8 V 44.5 66 h -7.333333 c -4.033334,0 -7.633334,-0.3 -8,-0.666667 z M 182.75327,65.027395 c -2.0607,-0.391322 -4.7103,-1.570072 -5.88801,-2.619444 C 172.77156,58.760345 172,54.974004 172,38.532119 V 23 h 7.5 7.5 v 14 c 0,12.666667 0.19048,14.190476 2,16 2.77983,2.779831 7.51519,2.575721 10.54545,-0.454545 2.36445,-2.36445 2.45455,-2.95174 2.45455,-16 V 23 h 7.5 7.5 l 0.004,5.25 0.004,5.25 1.8782,-3.080035 C 222.07679,25.186902 226.98013,23.5 239,23.5 c 8.03671,0 11.29849,0.410548 13.90364,1.75 C 257.11403,27.414798 257,27.421757 257,25 c 0,-1.547287 0.66667,-2 2.94521,-2 2.79109,0 2.96116,-0.24165 3.25,-4.617894 l 0.30479,-4.617894 6,-1.867378 C 278.9714,8.9490506 279,8.9629063 279,16.5 V 23 h 3.5 3.5 v 5.5 5.5 h -3.5 -3.5 v 9.464816 c 0,8.473628 0.21161,9.578067 2.02067,10.546244 C 283.70508,55.447714 285,54.492559 285,51.075842 285,44.703073 291.50281,40.717634 304.81957,38.928825 314.64831,37.608554 316,37.182878 316,35.407861 c 0,-3.83927 -11.03758,-4.234854 -15.99039,-0.57309 l -2.68337,1.983905 -4.7805,-2.791961 -4.78049,-2.791961 2.2059,-2.205903 c 4.2191,-4.219106 9.87521,-5.983283 19.25861,-6.006889 16.9317,-0.0426 20.99335,3.86283 21.61988,20.7883 0.32474,8.772724 0.66402,10.493577 2.26614,11.494118 C 334.46724,56.148378 335,57.648682 335,60.610494 v 4.129401 l -4.60861,0.519457 c -5.43692,0.61282 -10.98196,-0.705332 -12.21182,-2.902957 -0.79406,-1.418913 -1.1602,-1.41777 -3.92556,0.01225 -8.03653,4.155852 -18.71885,4.162362 -24.83013,0.01513 L 286,60.060274 v 2.397906 c 0,2.144447 -0.55493,2.46583 -5.25,3.040506 -6.5585,0.802758 -12.32614,-1.01116 -15.09991,-4.748908 -1.71634,-2.312832 -2.10897,-4.658649 -2.46876,-14.75 L 262.75349,34 h -3.51072 c -1.9309,0 -5.25626,0.522973 -7.38968,1.162163 -3.49331,1.04662 -4.10778,0.947199 -6.18048,-1 -2.8327,-2.661185 -9.74346,-2.986647 -11.76242,-0.55395 -2.02062,2.434695 0.66596,3.872316 10.66886,5.709032 13.41458,2.463164 17.97113,6.208512 17.04487,14.010371 -0.91393,7.697954 -8.27957,11.904312 -21.08889,12.043402 -9.9002,0.107501 -16.7685,-1.75833 -20.60869,-5.598526 L 217,56.846154 V 60.923077 65 h -7.5 c -6.66601,0 -7.5,-0.208446 -7.5,-1.87454 0,-1.814824 -0.11946,-1.818031 -3.75,-0.10066 -4.60824,2.179859 -10.53205,2.945375 -15.49673,2.002595 z M 244.80993,52.817258 C 245.20225,49.421403 243.66004,48.591179 234,46.99789 225.33433,45.568609 222.00388,44.091683 219.0883,40.385121 L 217,37.730283 v 7.134858 c 0,7.990401 -0.0445,7.95545 7.30791,5.742706 4.32826,-1.302615 4.66448,-1.270197 5.2276,0.504043 0.9178,2.891716 5.43135,4.885713 10.46449,4.622998 4.06804,-0.212341 4.52975,-0.49241 4.80993,-2.91763 z m 69.40061,0.171064 C 315.19474,51.772883 316,49.645311 316,48.260385 c 0,-2.45842 -0.12432,-2.50174 -5.25,-1.829432 -8.3335,1.093061 -12.05814,4.797319 -8.5,8.453484 1.96279,2.016864 9.79778,0.774776 11.96054,-1.896115 z M 8,35 V 5 h 7.5 7.5 v 10.983949 10.98395 l 4.014575,-2.092513 c 3.282871,-1.711129 5.36276,-2.024433 11.41155,-1.718983 C 51.216614,23.802293 53,27.021995 53,49.467881 V 65 H 45.5 38 V 51 c 0,-12.915342 -0.163673,-14.163673 -2.112574,-16.112574 -1.666508,-1.666508 -2.88061,-1.989652 -5.75,-1.530414 C 23.782652,34.374076 23,36.375688 23,51.610784 V 65 H 15.5 8 Z m 67,9 V 23 h 8 c 7.181413,0 8,0.193616 8,1.892201 0,1.856267 0.07048,1.856267 3.711442,0 4.626295,-2.358619 15.092808,-2.561909 19.321288,-0.375274 5.46091,2.823944 6.4137,6.221808 6.79518,24.233073 L 121.17208,65 113.33604,64.9989 105.5,64.9978 V 50.909377 c 0,-13.599927 -0.0819,-14.154668 -2.36078,-15.998931 -3.05883,-2.475414 -6.219867,-2.42151 -9.504361,0.162073 C 91.013712,37.134374 91,37.217642 91,51.07258 V 65 h -8 -8 z m 55.9844,19.150549 C 128.99219,62.093122 126.42938,59.416568 125,56.900549 122.86787,53.147534 122.503,51.249238 122.52042,44 c 0.0243,-10.134446 2.42462,-15.476767 8.48362,-18.882114 4.5085,-2.533919 13.30447,-2.851476 18.52808,-0.668913 L 153,25.897947 V 15.448973 5 h 7.5 7.5 v 30 30 h -7 c -5.55556,0 -7,-0.309524 -7,-1.5 0,-1.841092 -0.77935,-1.841092 -4,0 -3.71501,2.12369 -14.7378,1.921123 -19.0156,-0.349451 z M 151,54 c 1.66667,-1.666667 2,-3.333333 2,-10 0,-6.666667 -0.33333,-8.333333 -2,-10 -2.57144,-2.571443 -8.10635,-2.644951 -10.3753,-0.137792 -4.04859,4.473645 -4.35273,16.409758 -0.5159,20.246594 C 142.65381,56.653811 148.40363,56.596371 151,54 Z M 337,44 V 23 h 7.5 c 6.81311,0 7.5,0.181701 7.5,1.983949 0,1.960571 0.0473,1.959292 4.01457,-0.108563 3.28288,-1.711129 5.36277,-2.024433 11.41155,-1.718983 8.12617,0.410353 10.75888,1.8782 13.17137,7.343597 1.31442,2.977777 1.32452,2.96111 1.36337,-2.25 0.0384,-5.157968 0.0917,-5.25 3.03914,-5.25 2.88488,0 3,-0.171131 3,-4.45982 v -4.45982 l 6.60534,-2.04018 C 398.23827,10.918081 401.61327,10 402.10534,10 402.5974,10 403,12.925 403,16.5 V 23 h 3.5 3.5 v 5.5 5.5 h -3.53621 -3.53621 l 0.28621,9.75 0.28621,9.75 3.25,0.956797 c 3.08156,0.907208 3.25,1.205215 3.25,5.75 V 65 h -6.95295 C 390.21445,65 388.77846,63.188157 388.1866,46.25 L 387.75856,34 H 384.87928 382 V 49.5 65 H 374.5 367 V 51.555764 c 0,-12.625161 -0.14151,-13.60875 -2.32271,-16.144551 -2.01604,-2.343785 -2.80444,-2.609941 -5.97126,-2.015842 C 352.75351,34.512069 352,36.571374 352,51.722506 V 65 h -7.5 -7.5 z m 75,0 V 23 l 7.75,-9.64e-4 7.75,-9.63e-4 -0.28861,21.000963 L 426.92278,65 H 419.46139 412 Z m 19,0 V 23 h 7.5 c 6.83333,0 7.5,0.177778 7.5,2 0,2.433815 -0.27379,2.433815 4.5,0 5.70729,-2.909744 14.1516,-2.72565 18.7711,0.409227 l 3.55019,2.409226 4.75884,-2.409226 c 6.16312,-3.120173 15.40293,-3.326683 20.12132,-0.449711 C 503.2991,28.372605 504,31.042276 504,48.95034 V 65 h -7 -7 V 52.5651 c 0,-12.130327 -0.90255,-17.247016 -3.31256,-18.779435 -2.19825,-1.397766 -6.3987,-0.80063 -9.05258,1.286915 -2.62115,2.061794 -2.63486,2.145062 -2.63486,16 V 65 h -7 -7 V 51.634859 c 0,-12.006958 -0.21062,-13.6329 -2.07258,-16 -2.5495,-3.241162 -6.60524,-3.462726 -10.29256,-0.562279 -2.62115,2.061794 -2.63486,2.145062 -2.63486,16 V 65 h -7.5 -7.5 z m 87.2564,19.882878 c -4.58798,-1.325 -9.96139,-7.077254 -11.32714,-12.125747 -1.56612,-5.789159 -0.60726,-14.778485 2.08786,-19.573811 3.22052,-5.73014 8.66274,-8.437643 18.05269,-8.981219 11.19755,-0.648216 17.68002,2.060515 22.03924,9.209202 1.20027,1.968304 1.88483,2.481734 1.88721,1.415422 0.007,-2.94809 4.88877,-7.599548 9.69561,-9.237402 5.43642,-1.852375 16.92154,-2.085037 22.36836,-0.453132 3.75282,1.124373 9.93977,5.897329 9.93977,7.668092 0,0.504363 -2.52101,1.634188 -5.60224,2.510721 -5.39767,1.535506 -5.70369,1.518686 -8.38089,-0.460653 -2.93895,-2.172859 -9.47959,-2.791629 -11.21065,-1.060571 -0.54658,0.546579 -0.8337,1.825017 -0.63804,2.840973 0.28458,1.477722 2.3676,2.252497 10.41417,3.873529 10.90527,2.196935 14.97704,4.202639 16.46228,8.109117 1.84032,4.84039 1.13886,8.399108 -2.34155,11.879525 -4.10571,4.105703 -8.95277,5.491922 -19.20308,5.491922 -10.22524,0 -15.09688,-1.385725 -19.16164,-5.450483 l -3.25548,-3.255485 -2.29144,2.49048 c -4.02528,4.374929 -9.45461,6.189855 -18.29144,6.114492 -4.4,-0.03753 -9.45962,-0.489762 -11.2436,-1.004972 z m 16.39829,-9.011261 C 535.39461,54.257538 536,53.094815 536,52.287786 c 0,-1.227069 1.35474,-1.354475 8.27385,-0.778116 5.27806,0.439659 9.82223,0.272276 12.55017,-0.462283 4.13557,-1.113593 4.37181,-1.049266 7.17774,1.954499 2.62985,2.81526 3.38774,3.077541 8.09684,2.802052 9.52296,-0.557105 8.82536,-6.889118 -0.90903,-8.251126 C 564.10747,46.561907 555.71431,44.012396 553.75,42.255364 552.12235,40.799467 552,40.910609 552,43.845012 V 47 h -15.5 c -15.02469,0 -15.5,0.06369 -15.5,2.076923 0,1.142308 1.36803,3.444952 3.04006,5.116987 2.52447,2.524463 3.56832,2.934415 6.1547,2.417139 1.71304,-0.342609 3.72001,-1.125354 4.45993,-1.739432 z M 537,37.07258 C 537,34.819355 532.54212,31 529.91219,31 526.8072,31 523.2703,33.11134 522.11027,35.657325 521.49962,36.997555 521,38.297932 521,38.547053 521,38.796174 524.6,39 529,39 c 7.23292,0 8,-0.184812 8,-1.92742 z M 60.5,19.846229 C 57.769845,18.24185 57.033271,16.965248 57.015313,13.806704 56.996566,10.509396 60.24578,8 64.533945,8 68.037899,8 72,11.145974 72,13.928171 c 0,4.707645 -7.229117,8.427848 -11.5,5.918058 z M 415.25,19.531828 C 412.47792,18.30761 412,17.583102 412,14.604978 c 0,-6.4228441 7.75748,-8.9384085 12.60756,-4.088329 5.56724,5.567244 -1.57784,12.450895 -9.35756,9.015179 z"
       id="path22"
       inkscape:connector-curvature="0" />
    <path
       style="fill:#0592c4"
       d="M 8,35 V 5 h 7.5 7.5 v 11 c 0,6.05 0.214124,11 0.47583,11 0.261707,0 1.949207,-0.898318 3.75,-1.996262 4.839563,-2.950682 15.289673,-2.803002 19.876287,0.28089 4.892165,3.289335 5.776778,6.994311 5.841441,24.465372 L 53,65 H 45.5 38 V 51 C 38,38.333333 37.809524,36.809524 36,35 33.220169,32.220169 28.484812,32.424279 25.454545,35.454545 23.090096,37.818995 23,38.406285 23,51.454545 V 65 H 15.5 8 Z m 48.5,9 V 23 H 64.25 72 V 44 65 H 64.25 56.5 Z M 76,44 V 23 h 7.40638 c 6.914051,0 7.371614,0.132947 6.883369,2 -0.651207,2.490221 -0.197146,2.490221 4.449066,0 4.60144,-2.466224 14.950685,-2.729045 19.281205,-0.48965 4.90661,2.53731 5.44,4.610366 5.97998,23.241425 l 0.5,17.251774 -7.17442,-0.0018 L 106.15117,65 105.82558,51.101767 c -0.28068,-11.981762 -0.58826,-14.188053 -2.23057,-16 -2.53467,-2.796497 -6.825983,-2.667034 -10.289246,0.310411 L 90.5,37.824356 v 13.586696 13.586695 l -7.25,0.0011 L 76,65 Z m 54.85853,18.842497 c -12.79112,-7.417125 -11.12959,-33.64567 2.45657,-38.778879 3.95104,-1.492806 10.69888,-1.32279 15.55917,0.392023 L 153,25.911282 V 15.455641 5 h 7.5 7.5 v 30 30 h -7 c -5.55556,0 -7,-0.309524 -7,-1.5 0,-0.825 -0.17004,-1.5 -0.37788,-1.5 -0.20783,0 -1.99337,0.675 -3.96788,1.5 -5.31966,2.222697 -14.37497,1.905928 -18.79571,-0.657503 z M 151,54 c 1.66667,-1.666667 2,-3.333333 2,-10 0,-6.666667 -0.33333,-8.333333 -2,-10 -2.75948,-2.759483 -8.06759,-2.635667 -10.71772,0.25 -4.02275,4.380279 -4.14478,15.887502 -0.2102,19.822082 C 142.65331,56.653308 148.3845,56.615504 151,54 Z m 28.0964,9.735258 c -1.32198,-0.679392 -3.34698,-2.504099 -4.5,-4.054904 -1.90006,-2.555564 -2.12598,-4.405307 -2.41225,-19.75 L 171.8683,23 H 179.43415 187 v 13.777494 c 0,10.851241 0.33063,14.24954 1.5567,16 2.20007,3.141029 7.73251,3.024205 10.98875,-0.232039 2.36445,-2.36445 2.45455,-2.95174 2.45455,-16 L 202,23 h 7.5 7.5 l 0.0228,5.75 0.0228,5.75 1.52631,-3.093444 c 2.6196,-5.309252 8.48197,-7.783492 19.42815,-8.19973 8.51435,-0.323766 9.99282,-0.107965 14.25,2.079955 l 4.75,2.4412 v -2.36399 C 257,23.336115 257.48984,23 260.44521,23 c 3.38984,0 3.45011,-0.0748 3.75,-4.654606 0.28368,-4.332284 0.54964,-4.739013 3.84062,-5.873506 1.94471,-0.670395 4.98221,-1.536577 6.75,-1.924849 L 278,9.8410895 V 16.420545 23 h 4 4 v 5.5 5.5 h -4.09653 -4.09653 l 0.34653,9.537486 c 0.25793,7.099059 0.73003,9.78325 1.84653,10.498747 2.67035,1.711268 4.44828,0.573203 5.06885,-3.244594 0.3296,-2.027757 1.23645,-4.458544 2.01521,-5.40175 2.31999,-2.80987 8.8903,-5.171299 17.73195,-6.37303 C 314.60698,37.6861 316,37.239113 316,35.428195 c 0,-3.933456 -10.87254,-4.377212 -15.91448,-0.64954 l -2.70632,2.000865 -3.69886,-2.232356 c -2.03438,-1.227796 -3.99647,-2.529963 -4.36021,-2.893703 -1.29178,-1.291782 4.04209,-5.613039 8.93392,-7.237841 6.99099,-2.322037 21.64477,-1.628273 25.43878,1.204366 5.76607,4.30499 6.62183,6.511003 7.10857,18.324664 0.39747,9.64675 0.68387,11.074593 2.32594,11.595766 C 334.58651,56.00354 335,57.113505 335,60.567388 V 65 h -6.81144 c -5.50811,0 -7.237,-0.396469 -9.03549,-2.072024 l -2.22406,-2.072023 -4.496,2.176478 c -6.24333,3.02234 -18.7539,2.585108 -23.35443,-0.816214 L 286,59.940125 v 2.529938 C 286,64.967826 285.89728,65 277.92308,65 c -7.5938,0 -8.25177,-0.174847 -11,-2.923077 C 264.0022,59.156042 264,59.144399 264,46.576923 V 34 l -4.25,0.0056 c -2.3375,0.0031 -5.98463,0.487232 -8.10473,1.075922 -3.38714,0.940509 -4.12278,0.818529 -6.06445,-1.005577 -2.70503,-2.541244 -9.68761,-2.857096 -11.62247,-0.525734 -2.1416,2.580471 0.69185,4.17638 10.39404,5.854329 11.08998,1.91796 14.70824,3.933936 16.55945,9.226395 1.28204,3.665216 1.23607,4.393864 -0.5,7.924875 -2.91992,5.938904 -7.10242,7.820965 -18.38727,8.273993 -11.31851,0.454379 -16.79414,-0.810554 -21.5377,-4.975452 L 217,56.792816 V 60.896408 65 h -7.5 c -6.85848,0 -7.5,-0.17281 -7.5,-2.020324 v -2.020324 l -3.96016,2.020324 c -4.57292,2.332927 -15.06026,2.751227 -18.94344,0.755582 z m 65.82967,-9.597118 c 1.82614,-3.41217 -0.8465,-5.168294 -10.95035,-7.195212 -9.76132,-1.958202 -13.59354,-3.919154 -15.71098,-8.039327 -1.07434,-2.090475 -1.23718,-1.314907 -1.25,5.953388 -0.0119,6.744702 0.25457,8.253645 1.38117,7.821327 0.76775,-0.294615 3.16131,-1.064588 5.31902,-1.711052 3.75076,-1.123757 4.05945,-1.039033 7.02716,1.928673 2.65119,2.651187 3.83964,3.104063 8.1458,3.104063 3.8936,0 5.26866,-0.423998 6.03818,-1.86186 z m 68.43907,-0.21072 C 315.18018,52.499708 316,50.908144 316,48.812197 v -3.042644 l -5.75,0.706974 c -5.98652,0.736055 -9.25,2.668905 -9.25,5.478461 0,4.364613 7.75195,5.601169 12.36514,1.972432 z M 337,44 V 23 h 7.5 c 6.83333,0 7.5,0.177778 7.5,2 0,2.471719 0.17771,2.471876 4.22583,0.0037 2.38553,-1.454459 5.03833,-1.996262 9.77417,-1.996262 7.72341,0 12.23979,2.263628 14.40663,7.220655 l 1.43022,3.271869 0.0816,-5.25 C 381.99842,23.101461 382.05798,23 385,23 c 2.88488,0 3,-0.171131 3,-4.45982 v -4.45982 l 6.60534,-2.04018 C 398.23827,10.918081 401.61327,10 402.10534,10 402.5974,10 403,12.925 403,16.5 V 23 h 3.5 3.5 v 5.5 5.5 h -3.53621 -3.53621 l 0.28621,9.75 0.28621,9.75 3.25,0.956797 c 3.08156,0.907208 3.25,1.205215 3.25,5.75 V 65 h -6.95295 C 390.21445,65 388.77846,63.188157 388.1866,46.25 L 387.75856,34 384.62928,33.9986 381.5,33.9972 381.7989,49.49864 382.0978,65 H 374.5489 367 V 51 c 0,-12.666667 -0.19048,-14.190476 -2,-16 -2.58211,-2.58211 -7.02984,-2.550966 -10.36514,0.07258 -2.62115,2.061794 -2.63486,2.145062 -2.63486,16 V 65 h -7.5 -7.5 z m 75,0 V 23 l 7.75,-9.64e-4 7.75,-9.63e-4 -0.28861,21.000963 L 426.92278,65 H 419.46139 412 Z m 19,0 V 23 h 7.5 c 6.83333,0 7.5,0.177778 7.5,2 0,2.433815 -0.27379,2.433815 4.5,0 5.70729,-2.909744 14.1516,-2.72565 18.7711,0.409227 l 3.55019,2.409226 4.75884,-2.409226 c 6.16312,-3.120173 15.40293,-3.326683 20.12132,-0.449711 C 503.2991,28.372605 504,31.042276 504,48.95034 V 65 h -7 -7 V 52.5651 c 0,-12.130327 -0.90255,-17.247016 -3.31256,-18.779435 -2.19825,-1.397766 -6.3987,-0.80063 -9.05258,1.286915 -2.62115,2.061794 -2.63486,2.145062 -2.63486,16 V 65 h -7 -7 V 51.634859 c 0,-12.006958 -0.21062,-13.6329 -2.07258,-16 -2.5495,-3.241162 -6.60524,-3.462726 -10.29256,-0.562279 -2.62115,2.061794 -2.63486,2.145062 -2.63486,16 V 65 h -7.5 -7.5 z m 87.2564,19.882878 c -4.58798,-1.325 -9.96139,-7.077254 -11.32714,-12.125747 -1.56612,-5.789159 -0.60726,-14.778485 2.08786,-19.573811 3.22052,-5.73014 8.66274,-8.437643 18.05269,-8.981219 11.19755,-0.648216 17.68002,2.060515 22.03924,9.209202 1.20027,1.968304 1.88483,2.481734 1.88721,1.415422 0.007,-2.94809 4.88877,-7.599548 9.69561,-9.237402 5.43642,-1.852375 16.92154,-2.085037 22.36836,-0.453132 3.75282,1.124373 9.93977,5.897329 9.93977,7.668092 0,0.504363 -2.52101,1.634188 -5.60224,2.510721 -5.39767,1.535506 -5.70369,1.518686 -8.38089,-0.460653 -2.93895,-2.172859 -9.47959,-2.791629 -11.21065,-1.060571 -0.54658,0.546579 -0.8337,1.825017 -0.63804,2.840973 0.28458,1.477722 2.3676,2.252497 10.41417,3.873529 10.90527,2.196935 14.97704,4.202639 16.46228,8.109117 1.84032,4.84039 1.13886,8.399108 -2.34155,11.879525 -4.10571,4.105703 -8.95277,5.491922 -19.20308,5.491922 -10.22524,0 -15.09688,-1.385725 -19.16164,-5.450483 l -3.25548,-3.255485 -2.29144,2.49048 c -4.02528,4.374929 -9.45461,6.189855 -18.29144,6.114492 -4.4,-0.03753 -9.45962,-0.489762 -11.2436,-1.004972 z m 16.39829,-9.011261 C 535.39461,54.257538 536,53.094815 536,52.287786 c 0,-1.227069 1.35474,-1.354475 8.27385,-0.778116 5.27806,0.439659 9.82223,0.272276 12.55017,-0.462283 4.13557,-1.113593 4.37181,-1.049266 7.17774,1.954499 2.62985,2.81526 3.38774,3.077541 8.09684,2.802052 9.52296,-0.557105 8.82536,-6.889118 -0.90903,-8.251126 C 564.10747,46.561907 555.71431,44.012396 553.75,42.255364 552.12235,40.799467 552,40.910609 552,43.845012 V 47 h -15.5 c -15.02469,0 -15.5,0.06369 -15.5,2.076923 0,1.142308 1.36803,3.444952 3.04006,5.116987 2.52447,2.524463 3.56832,2.934415 6.1547,2.417139 1.71304,-0.342609 3.72001,-1.125354 4.45993,-1.739432 z M 537,37.07258 C 537,34.819355 532.54212,31 529.91219,31 526.8072,31 523.2703,33.11134 522.11027,35.657325 521.49962,36.997555 521,38.297932 521,38.547053 521,38.796174 524.6,39 529,39 c 7.23292,0 8,-0.184812 8,-1.92742 z M 61.02823,19.862156 C 53.961432,17.112414 56.450167,8 64.267961,8 67.277987,8 72,11.874181 72,14.343761 c 0,4.105 -6.370114,7.308933 -10.97177,5.518395 z M 415.25,19.531828 C 412.47792,18.30761 412,17.583102 412,14.604978 c 0,-6.4228441 7.75748,-8.9384085 12.60756,-4.088329 5.56724,5.567244 -1.57784,12.450895 -9.35756,9.015179 z"
       id="path20"
       inkscape:connector-curvature="0" />
    <path
       style="fill:#666565"
       d="M 8,35 V 5 h 7.5 7.5 v 11 c 0,6.05 0.214124,11 0.47583,11 0.261707,0 1.949207,-0.898318 3.75,-1.996262 4.839563,-2.950682 15.289673,-2.803002 19.876287,0.28089 4.892165,3.289335 5.776778,6.994311 5.841441,24.465372 L 53,65 H 45.5 38 V 51 C 38,38.333333 37.809524,36.809524 36,35 33.220169,32.220169 28.484812,32.424279 25.454545,35.454545 23.090096,37.818995 23,38.406285 23,51.454545 V 65 H 15.5 8 Z m 48.5,9 V 23 H 64.25 72 V 44 65 H 64.25 56.5 Z M 76,44 V 23 h 7.40638 c 6.914051,0 7.371614,0.132947 6.883369,2 -0.651207,2.490221 -0.197146,2.490221 4.449066,0 4.60144,-2.466224 14.950685,-2.729045 19.281205,-0.48965 4.90661,2.53731 5.44,4.610366 5.97998,23.241425 l 0.5,17.251774 -7.17442,-0.0018 L 106.15117,65 105.82558,51.101767 c -0.28068,-11.981762 -0.58826,-14.188053 -2.23057,-16 -2.53467,-2.796497 -6.825983,-2.667034 -10.289246,0.310411 L 90.5,37.824356 v 13.586696 13.586695 l -7.25,0.0011 L 76,65 Z m 54.85853,18.842497 c -12.79112,-7.417125 -11.12959,-33.64567 2.45657,-38.778879 3.95104,-1.492806 10.69888,-1.32279 15.55917,0.392023 L 153,25.911282 V 15.455641 5 h 7.5 7.5 v 30 30 h -7 c -5.55556,0 -7,-0.309524 -7,-1.5 0,-0.825 -0.17004,-1.5 -0.37788,-1.5 -0.20783,0 -1.99337,0.675 -3.96788,1.5 -5.31966,2.222697 -14.37497,1.905928 -18.79571,-0.657503 z M 151,54 c 1.66667,-1.666667 2,-3.333333 2,-10 0,-6.666667 -0.33333,-8.333333 -2,-10 -2.75948,-2.759483 -8.06759,-2.635667 -10.71772,0.25 -4.02275,4.380279 -4.14478,15.887502 -0.2102,19.822082 C 142.65331,56.653308 148.3845,56.615504 151,54 Z m 28.0964,9.735258 c -1.32198,-0.679392 -3.34698,-2.504099 -4.5,-4.054904 -1.90006,-2.555564 -2.12598,-4.405307 -2.41225,-19.75 L 171.8683,23 H 179.43415 187 v 13.777494 c 0,10.851241 0.33063,14.24954 1.5567,16 2.20007,3.141029 7.73251,3.024205 10.98875,-0.232039 2.36445,-2.36445 2.45455,-2.95174 2.45455,-16 L 202,23 h 7.5 7.5 l 0.0228,5.75 0.0228,5.75 1.52631,-3.093444 c 2.6196,-5.309252 8.48197,-7.783492 19.42815,-8.19973 8.51435,-0.323766 9.99282,-0.107965 14.25,2.079955 l 4.75,2.4412 v -2.36399 C 257,23.336115 257.48984,23 260.44521,23 c 3.38984,0 3.45011,-0.0748 3.75,-4.654606 0.28368,-4.332284 0.54964,-4.739013 3.84062,-5.873506 1.94471,-0.670395 4.98221,-1.536577 6.75,-1.924849 L 278,9.8410895 V 16.420545 23 h 4 4 v 5.5 5.5 h -4.09653 -4.09653 l 0.34653,9.537486 c 0.25793,7.099059 0.73003,9.78325 1.84653,10.498747 2.67035,1.711268 4.44828,0.573203 5.06885,-3.244594 0.3296,-2.027757 1.23645,-4.458544 2.01521,-5.40175 2.31999,-2.80987 8.8903,-5.171299 17.73195,-6.37303 C 314.60698,37.6861 316,37.239113 316,35.428195 c 0,-3.933456 -10.87254,-4.377212 -15.91448,-0.64954 l -2.70632,2.000865 -3.69886,-2.232356 c -2.03438,-1.227796 -3.99647,-2.529963 -4.36021,-2.893703 -1.29178,-1.291782 4.04209,-5.613039 8.93392,-7.237841 6.99099,-2.322037 21.64477,-1.628273 25.43878,1.204366 5.76607,4.30499 6.62183,6.511003 7.10857,18.324664 0.39747,9.64675 0.68387,11.074593 2.32594,11.595766 C 334.58651,56.00354 335,57.113505 335,60.567388 V 65 h -6.81144 c -5.50811,0 -7.237,-0.396469 -9.03549,-2.072024 l -2.22406,-2.072023 -4.496,2.176478 c -6.24333,3.02234 -18.7539,2.585108 -23.35443,-0.816214 L 286,59.940125 v 2.529938 C 286,64.967826 285.89728,65 277.92308,65 c -7.5938,0 -8.25177,-0.174847 -11,-2.923077 C 264.0022,59.156042 264,59.144399 264,46.576923 V 34 l -4.25,0.0056 c -2.3375,0.0031 -5.98463,0.487232 -8.10473,1.075922 -3.38714,0.940509 -4.12278,0.818529 -6.06445,-1.005577 -2.70503,-2.541244 -9.68761,-2.857096 -11.62247,-0.525734 -2.1416,2.580471 0.69185,4.17638 10.39404,5.854329 11.08998,1.91796 14.70824,3.933936 16.55945,9.226395 1.28204,3.665216 1.23607,4.393864 -0.5,7.924875 -2.91992,5.938904 -7.10242,7.820965 -18.38727,8.273993 -11.31851,0.454379 -16.79414,-0.810554 -21.5377,-4.975452 L 217,56.792816 V 60.896408 65 h -7.5 c -6.85848,0 -7.5,-0.17281 -7.5,-2.020324 v -2.020324 l -3.96016,2.020324 c -4.57292,2.332927 -15.06026,2.751227 -18.94344,0.755582 z m 65.82967,-9.597118 c 1.82614,-3.41217 -0.8465,-5.168294 -10.95035,-7.195212 -9.76132,-1.958202 -13.59354,-3.919154 -15.71098,-8.039327 -1.07434,-2.090475 -1.23718,-1.314907 -1.25,5.953388 -0.0119,6.744702 0.25457,8.253645 1.38117,7.821327 0.76775,-0.294615 3.16131,-1.064588 5.31902,-1.711052 3.75076,-1.123757 4.05945,-1.039033 7.02716,1.928673 2.65119,2.651187 3.83964,3.104063 8.1458,3.104063 3.8936,0 5.26866,-0.423998 6.03818,-1.86186 z m 68.43907,-0.21072 C 315.18018,52.499708 316,50.908144 316,48.812197 v -3.042644 l -5.75,0.706974 c -5.98652,0.736055 -9.25,2.668905 -9.25,5.478461 0,4.364613 7.75195,5.601169 12.36514,1.972432 z M 337,44 V 23 h 7.5 c 6.83333,0 7.5,0.177778 7.5,2 0,2.471719 0.17771,2.471876 4.22583,0.0037 4.82991,-2.944794 15.29216,-2.803145 19.85056,0.268757 4.73151,3.188562 5.75604,7.565382 5.84676,24.977505 L 382,65 H 374.5 367 V 51 c 0,-12.666667 -0.19048,-14.190476 -2,-16 -2.58211,-2.58211 -7.02984,-2.550966 -10.36514,0.07258 -2.62115,2.061794 -2.63486,2.145062 -2.63486,16 V 65 H 344.5 337 Z M 61.02823,19.862156 C 53.961432,17.112414 56.450167,8 64.267961,8 67.277987,8 72,11.874181 72,14.343761 c 0,4.105 -6.370114,7.308933 -10.97177,5.518395 z"
       id="path18"
       inkscape:connector-curvature="0" />
    <path
       style="fill:#262424"
       d="M 8,35 V 5 h 7.5 7.5 v 11.529937 11.529938 l 3.021532,-2.233916 c 3.943295,-2.915404 13.948237,-3.701084 19.197979,-1.507601 6.225142,2.60103 7.213227,5.773913 7.608394,24.431642 L 53.172077,65 H 45.586039 38 V 51 C 38,38.333333 37.809524,36.809524 36,35 33.41789,32.41789 28.970157,32.449034 25.634859,35.07258 23.013712,37.134374 23,37.217642 23,51.07258 V 65 H 15.5 8 Z m 49,9 V 23 H 64.5 72 V 44 65 H 64.5 57 Z m 19,0 V 23 h 7 c 6.778753,0 7,0.07813 7,2.471865 v 2.471865 l 4.648939,-2.471865 C 100.0038,22.624656 108.04039,22.154384 113.3598,24.376973 119.00261,26.734691 120,30.418335 120,48.901129 V 65 h -7 -7 V 51 C 106,38.333333 105.80952,36.809524 104,35 100.50937,31.509367 93.227465,33.010592 91.110272,37.657325 90.486467,39.026427 90,45.550381 90,52.547053 V 65 h -7 -7 z m 56.45042,19.656118 C 126.3789,60.88667 122,52.496342 122,43.63228 c 0,-4.356976 3.20248,-13.153849 5.78421,-15.888609 4.39174,-4.652047 13.94552,-6.136919 20.87003,-3.243671 1.97451,0.825 3.98505,1.5 4.46788,1.5 C 153.60496,26 154,21.275 154,15.5 V 5 h 7 7 v 30 30 h -7 c -6.35992,0 -7,-0.184987 -7,-2.023053 0,-1.934831 -0.1104,-1.950714 -2.53171,-0.364211 -3.42334,2.243055 -14.99588,2.877962 -19.01787,1.043382 z m 18.81819,-9.515558 c 1.17501,-1.151579 1.95212,-3.899364 2.31535,-8.18695 0.90561,-10.689536 -3.47942,-16.158121 -10.94153,-13.64525 -5.14764,1.73347 -7.32357,11.732347 -4.18686,19.239547 2.29069,5.482389 8.56839,6.752649 12.81304,2.592653 z m 27.73254,9.107886 C 173.3516,60.425254 172.54449,57.59209 172.16454,39.25 L 171.82792,23 H 179.41396 187 v 14.345012 c 0,12.627224 0.21899,14.543195 1.82874,16 2.72232,2.46367 8.38175,2.124286 10.99695,-0.659463 2.01375,-2.143546 2.17431,-3.32503 2.17431,-16 V 23 h 7.5 7.5 v 15 c 0,8.25 0.14332,15 0.3185,15 0.17517,0 2.67775,-0.700624 5.56129,-1.556942 5.2352,-1.554686 5.24566,-1.553288 7.22699,0.965556 3.63525,4.621475 12.79346,5.355276 15.31671,1.227252 1.75757,-2.875375 -2.26585,-5.162897 -12.61711,-7.173474 -7.40956,-1.439196 -9.86559,-2.367753 -12.05581,-4.557974 -6.0353,-6.035303 -2.13616,-14.573623 8.00102,-17.52058 7.62523,-2.216715 19.64295,-1.528634 24.62326,1.409819 L 257,27.932549 V 25.466275 C 257,23.321813 257.44955,23 260.44521,23 c 3.38557,0 3.45048,-0.07993 3.75,-4.617894 l 0.30479,-4.617894 6,-1.867378 c 3.3,-1.027059 6.3375,-1.874006 6.75,-1.882106 C 277.6625,10.006627 278,12.925 278,16.5 V 23 h 4 4 v 5.5 5.5 h -4 -4 v 8.928571 C 278,52.327057 279.0938,55 282.93976,55 c 1.35754,0 1.9361,-1.037789 2.36619,-4.244397 0.93986,-7.007175 5.75556,-9.683812 21.25668,-11.81477 8.81159,-1.211342 10.46548,-2.09893 8.79193,-4.718357 -1.65428,-2.589273 -12.37786,-2.416356 -15.32088,0.247049 -2.15256,1.948039 -2.18642,1.946015 -6.59867,-0.394682 C 290.99575,32.780822 289,31.357511 289,30.91193 c 0,-1.509253 6.47789,-5.709488 10.5,-6.808151 5.22588,-1.427483 16.29823,-1.407153 20.60078,0.03783 7.75698,2.605126 9.96259,6.878775 10.66632,20.667369 0.46869,9.183201 0.76522,10.517471 2.43444,10.953983 1.54727,0.404619 1.84475,1.263254 1.59961,4.61705 L 334.5,64.5 l -5.92962,0.305263 c -4.79901,0.247059 -6.48057,-0.102078 -8.8192,-1.831102 -2.82235,-2.086653 -2.97524,-2.095227 -6.57038,-0.368442 -4.11245,1.975248 -13.3262,2.964788 -18.52478,1.989528 -1.87685,-0.352099 -4.61545,-1.755071 -6.08576,-3.117714 C 287.09994,60.11489 285.69514,59 285.44848,59 285.20182,59 285,60.397648 285,62.105885 v 3.105885 l -7.97867,-0.36233 C 265.1406,64.309907 264.5913,63.545887 264.17053,46.97507 L 263.84106,34 h -4.77131 c -2.62422,0 -6.15581,0.482642 -7.84799,1.072538 -2.61084,0.910145 -3.37507,0.774152 -5.0474,-0.898181 -2.55003,-2.550025 -7.1211,-3.525305 -10.50064,-2.240407 -2.92194,1.110923 -3.45656,3.171463 -1.28947,4.969985 0.76134,0.631853 4.9744,1.780035 9.36236,2.551514 C 258.26393,42.007846 261,44.081713 261,52.533049 c 0,3.919883 -0.49149,5.123647 -3.0787,7.540467 -3.96289,3.701896 -8.51051,4.91533 -18.4213,4.91533 -9.96947,0 -14.58822,-1.249395 -19.02733,-5.14699 L 217,56.792816 V 60.896408 65 h -7.5 c -6.83333,0 -7.5,-0.177778 -7.5,-2 0,-1.1 -0.12985,-2 -0.28856,-2 -0.15871,0 -2.05385,0.9 -4.21144,2 -4.98468,2.541335 -13.67689,2.658075 -18.49885,0.248446 z M 313.36514,53.92742 C 315.13959,52.531642 316,50.89889 316,48.92742 316,46.174877 315.75913,46 311.96788,46 c -2.21766,0 -5.59266,0.652038 -7.5,1.448973 C 301.61524,48.640885 301,49.424444 301,51.86564 c 0,3.33177 0.92011,3.941964 6.11514,4.055413 2.24017,0.04892 4.61728,-0.709333 6.25,-1.993633 z M 337,44 V 23 h 7.46862 c 6.11846,0 7.36788,0.262509 6.91138,1.452113 -1.1153,2.906436 0.68774,3.55768 3.69474,1.334509 3.8896,-2.875703 13.93284,-3.645947 19.14477,-1.468264 6.11213,2.55381 7.10552,5.750572 7.59207,24.431642 L 382.23482,65 H 374.61741 367 V 51 c 0,-12.666667 -0.19048,-14.190476 -2,-16 -2.709,-2.708995 -7.26819,-2.533274 -10.69424,0.412178 L 351.5,37.824356 v 13.586696 13.586695 l -7.25,0.0011 L 337,65 Z M 58.654988,18.171259 c -3.544772,-3.916928 -1.258833,-8.8744543 4.524826,-9.813013 3.080807,-0.499946 4.098337,-0.1710044 6.308824,2.039482 2.848311,2.848312 2.743208,5.975183 -0.280743,8.352272 -2.410929,1.8952 -8.622299,1.554557 -10.552907,-0.578741 z"
       id="path16"
       inkscape:connector-curvature="0" />
    <path
       style="fill:#0f0d0d"
       d="M 8,35 V 5 H 15.5 23 L 22.787618,16.25 22.575237,27.5 22.253787,16.75 21.932337,6 H 15.466168 9 V 35 64 H 15.5 22 V 50.559017 c 0,-7.392541 0.3375,-13.650545 0.75,-13.906676 0.4125,-0.25613 0.61438,6.017312 0.448622,13.940983 L 22.897243,65 H 15.448622 8 Z m 30.219346,15.75 0.219346,-14.25 0.308592,13.706754 0.308592,13.706755 7.222062,0.344548 L 53.5,64.602606 45.75,64.801303 38,65 Z M 57,44 V 23 H 64.5 72 V 44 65 H 64.5 57 Z m 14,0 V 24 H 64.5 58 v 20 20 h 6.5 6.5 z m 5,0 V 23 h 7 c 6.626963,0 6.993818,0.119905 6.883999,2.25 -0.08729,1.69317 -0.22918,1.81691 -0.573325,0.5 C 88.940015,24.331626 87.730244,24 82.926676,24 H 77 v 20 20 h 5.969221 5.969221 L 89.252999,51.75 89.567556,39.5 89.783778,52.25 90,65 h -7 -7 z m 30.21837,7.25 0.21837,-13.75 0.31066,13.25 0.31065,13.25 h 5.94558 5.94558 l 0.30269,-15.75 0.30269,-15.75 0.2227,16.25 L 120,65 h -7 -7 z M 138.25,64.283746 c 1.5125,-0.229125 3.9875,-0.229125 5.5,0 1.5125,0.229124 0.275,0.41659 -2.75,0.41659 -3.025,0 -4.2625,-0.187466 -2.75,-0.41659 z M 154.07895,63.25 c 0.0472,-1.045438 0.28201,-1.246741 0.58333,-0.5 0.32374,0.802323 2.62339,1.25 6.42105,1.25 H 167 V 35 6 h -5.96502 -5.96501 L 154.74588,16.25 154.42179,26.5 154.2109,15.75 154,5 h 7 7 v 30 30 h -7 c -6.03008,0 -6.98906,-0.242481 -6.92105,-1.75 z m 34.43879,0.869226 c 3.85975,-0.392756 7.68475,-1.096271 8.5,-1.563368 1.21428,-0.695725 1.25295,-0.602474 0.21391,0.515786 -0.8066,0.868098 -3.90107,1.43725 -8.5,1.563367 L 181.5,64.833326 Z m 20.17444,0.139435 7.19217,-0.343946 0.38972,-3.707357 L 216.66379,56.5 216.8319,60.75 217,65 209.25,64.801303 201.5,64.602606 Z m 26.02765,0.01061 c 2.3209,-0.209724 6.3709,-0.212217 9,-0.0055 2.62909,0.206677 0.73017,0.378269 -4.21983,0.381317 -4.95,0.003 -7.10108,-0.166052 -4.78017,-0.375776 z m 39.53017,0.0023 c 2.0625,-0.215745 5.4375,-0.215745 7.5,0 2.0625,0.215744 0.375,0.392262 -3.75,0.392262 -4.125,0 -5.8125,-0.176518 -3.75,-0.392262 z m 23.5,0.0051 c 1.7875,-0.221826 4.7125,-0.221826 6.5,0 1.7875,0.221827 0.325,0.403322 -3.25,0.403322 -3.575,0 -5.0375,-0.181495 -3.25,-0.403322 z M 320.31365,63.25 c -1.04935,-0.9625 -1.25603,-1.3 -0.45929,-0.75 0.79674,0.55 4.19295,1.268881 7.54713,1.597513 l 6.09851,0.597513 -5.63922,0.152487 C 323.72574,64.959326 321.71266,64.533214 320.31365,63.25 Z M 337,44 V 23 l 7.25,0.19586 7.25,0.195861 -6.75,0.349829 -6.75,0.34983 V 44 63.90862 l 6.75,0.34983 6.75,0.349829 -7.25,0.195861 L 337,65 Z m 30.21935,6.75 0.21934,-14.25 0.30858,13.704947 0.30858,13.704946 6.72208,0.349193 L 381.5,64.608279 374.25,64.80414 367,65 Z M 131.55764,63.093259 c -0.30822,-0.498708 0.34022,-0.671224 1.44098,-0.383369 2.33499,0.610613 2.63015,1.29011 0.5604,1.29011 -0.79254,0 -1.69316,-0.408034 -2.00138,-0.906741 z m 46.94944,-0.08181 c -0.35034,-0.56686 0.0511,-0.734507 0.94098,-0.393011 C 181.18048,63.283234 181.49745,64 180.05902,64 c -0.51754,0 -1.21592,-0.444846 -1.55194,-0.988546 z m 48.76375,0.384379 c 0.3323,-0.332291 1.19479,-0.367818 1.91667,-0.07895 0.79773,0.319226 0.56078,0.556183 -0.60417,0.604167 -1.05416,0.04342 -1.64479,-0.192928 -1.3125,-0.52522 z m 22,0 c 0.3323,-0.332291 1.19479,-0.367818 1.91667,-0.07895 0.79773,0.319226 0.56078,0.556183 -0.60417,0.604167 -1.05416,0.04342 -1.64479,-0.192928 -1.3125,-0.52522 z M 266.87244,62.25 c -1.26951,-1.618755 -1.22245,-1.639977 0.62756,-0.282968 1.1,0.806868 2.1875,1.594368 2.41667,1.75 C 270.14583,63.872665 269.86343,64 269.28911,64 c -0.57432,0 -1.66182,-0.7875 -2.41667,-1.75 z m 21.05187,-2 -2.42431,-2.75 2.75,2.424314 c 1.5125,1.333373 2.75,2.570873 2.75,2.75 0,0.784274 -0.8098,0.145975 -3.07569,-2.424314 z M 127.40499,59.75 125.5,57.5 l 2.25,1.904988 c 1.2375,1.047743 2.25,2.060243 2.25,2.25 0,0.800253 -0.80479,0.209457 -2.59501,-1.904988 z m 92.46745,-0.5 C 218.62857,57.663944 218.66394,57.628574 220.25,58.872445 221.91575,60.178814 222.44548,61 221.62244,61 c -0.20765,0 -0.99515,-0.7875 -1.75,-1.75 z m 38.33723,0.243261 c 0.39032,-0.60555 1.1493,-2.201759 1.68661,-3.54713 0.61764,-1.546479 1.00026,-1.843251 1.04033,-0.806915 0.0349,0.901569 -0.72411,2.497777 -1.68661,3.54713 -0.9625,1.049353 -1.43065,1.412464 -1.04033,0.806915 z M 264.38536,46 c 0,-6.875 0.15977,-9.6875 0.35504,-6.25 0.19527,3.4375 0.19527,9.0625 0,12.5 -0.19527,3.4375 -0.35504,0.625 -0.35504,-6.25 z M 139.40499,54.75 137.5,52.5 140,54.489343 c 1.375,1.094139 2.6875,2.106639 2.91667,2.25 C 143.14583,56.882704 142.87808,57 142.32165,57 c -0.55642,0 -1.86892,-1.0125 -2.91666,-2.25 z m 8.67834,1.989343 c 0.22917,-0.143361 1.54167,-1.155861 2.91667,-2.25 L 153.5,52.5 l -1.90499,2.25 c -1.04774,1.2375 -2.36024,2.25 -2.91666,2.25 -0.55643,0 -0.82418,-0.117296 -0.59502,-0.260657 z m 41.42375,-1.727889 c -0.35034,-0.56686 0.0511,-0.734507 0.94098,-0.393011 C 192.18048,55.283234 192.49745,56 191.05902,56 c -0.51754,0 -1.21592,-0.444846 -1.55194,-0.988546 z m 91.76375,0.384379 c 0.33229,-0.332291 1.19479,-0.367818 1.91667,-0.07895 0.79773,0.319226 0.56078,0.556183 -0.60417,0.604167 -1.05416,0.04342 -1.64479,-0.192928 -1.3125,-0.52522 z m 49.14866,-0.745048 c -0.28476,-0.742068 -0.37771,-4.454568 -0.20656,-8.25 L 330.52411,39.5 l 0.48794,8.252349 c 0.48718,8.239369 0.38381,9.442816 -0.59256,6.898436 z m -113.99784,-1.99437 c -0.28357,-0.738971 -0.35886,-4.676471 -0.16731,-8.75 L 216.60261,36.5 l 0.19869,8.166667 c 0.13232,5.438177 0.61633,8.335182 1.4487,8.671052 0.97906,0.395059 0.97226,0.521498 -0.0314,0.583334 -0.70477,0.04342 -1.5134,-0.525666 -1.79697,-1.264638 z M 285.19495,51.5 c -0.0204,-1.65 0.18706,-2.446064 0.46099,-1.769032 0.27392,0.677033 0.29059,2.027033 0.0371,3 C 285.43945,53.703936 285.21533,53.15 285.19495,51.5 Z M 228,51.5 c -0.71755,-0.864593 -0.81474,-1.5 -0.22943,-1.5 0.5585,0 1.27447,0.675 1.59106,1.5 0.31658,0.825 0.41982,1.5 0.22943,1.5 C 229.40067,53 228.68469,52.325 228,51.5 Z M 123.15789,50 c 0,-1.375 0.22698,-1.9375 0.50439,-1.25 0.27741,0.6875 0.27741,1.8125 0,2.5 -0.27741,0.6875 -0.50439,0.125 -0.50439,-1.25 z m 78.4064,0.706872 c 0.37553,-0.986221 0.93469,-1.541221 1.24258,-1.233333 0.30789,0.307887 6.4e-4,1.114794 -0.68278,1.793128 -0.98762,0.980267 -1.10248,0.865403 -0.5598,-0.559795 z M 316.15789,50 c 0,-1.375 0.22698,-1.9375 0.50439,-1.25 0.27741,0.6875 0.27741,1.8125 0,2.5 -0.27741,0.6875 -0.50439,0.125 -0.50439,-1.25 z m -38.80293,-7.5 c -0.003,-4.95 0.16605,-7.101078 0.37577,-4.780173 0.20972,2.320905 0.21222,6.370905 0.006,9 C 277.5296,49.348922 277.358,47.45 277.35496,42.5 Z M 300,50.289111 c 0,-0.574322 0.7875,-1.661822 1.75,-2.416666 1.61876,-1.269516 1.63998,-1.222451 0.28297,0.627555 -0.80687,1.1 -1.59437,2.1875 -1.75,2.416667 C 300.12734,51.145833 300,50.863433 300,50.289111 Z M 136.27236,44 c 0,-2.475 0.19502,-3.4875 0.43337,-2.25 0.23836,1.2375 0.23836,3.2625 0,4.5 -0.23835,1.2375 -0.43337,0.225 -0.43337,-2.25 z m 18,0 c 0,-2.475 0.19502,-3.4875 0.43337,-2.25 0.23836,1.2375 0.23836,3.2625 0,4.5 -0.23835,1.2375 -0.43337,0.225 -0.43337,-2.25 z M 234.75,46.337719 c 0.6875,-0.277412 1.8125,-0.277412 2.5,0 0.6875,0.277413 0.125,0.504386 -1.25,0.504386 -1.375,0 -1.9375,-0.226973 -1.25,-0.504386 z m -6,-1 c 0.6875,-0.277412 1.8125,-0.277412 2.5,0 0.6875,0.277413 0.125,0.504386 -1.25,0.504386 -1.375,0 -1.9375,-0.226973 -1.25,-0.504386 z M 287,45.570368 c 0,-0.275 0.9,-0.981666 2,-1.570368 1.1,-0.588702 2,-0.845368 2,-0.570368 0,0.275 -0.9,0.981666 -2,1.570368 -1.1,0.588702 -2,0.845368 -2,0.570368 z m 23.25,-0.259694 c 0.9625,-0.251527 2.5375,-0.251527 3.5,0 0.9625,0.251528 0.175,0.457323 -1.75,0.457323 -1.925,0 -2.7125,-0.205795 -1.75,-0.457323 z m -91.29584,-5.39632 c -0.61391,-1.147106 -0.92784,-2.274008 -0.69762,-2.504226 0.23022,-0.230219 0.93203,0.708322 1.55958,2.085646 1.37807,3.024536 0.70709,3.350374 -0.86196,0.41858 z m 26.31667,0.481479 c 0.3323,-0.332291 1.19479,-0.367818 1.91667,-0.07895 0.79773,0.319226 0.56078,0.556183 -0.60417,0.604167 -1.05416,0.04342 -1.64479,-0.192928 -1.3125,-0.52522 z m 53,0 c 0.33229,-0.332291 1.19479,-0.367818 1.91667,-0.07895 0.79773,0.319226 0.56078,0.556183 -0.60417,0.604167 -1.05416,0.04342 -1.64479,-0.192928 -1.3125,-0.52522 z m -175.19188,-1.8125 c -0.0434,-1.054166 0.19292,-1.644791 0.52522,-1.3125 0.33229,0.332292 0.36781,1.194792 0.0789,1.916667 -0.31922,0.797733 -0.55618,0.560776 -0.60416,-0.604167 z M 239.25,39.310674 c 0.9625,-0.251527 2.5375,-0.251527 3.5,0 0.9625,0.251528 0.175,0.457323 -1.75,0.457323 -1.925,0 -2.7125,-0.205795 -1.75,-0.457323 z m 65,0 c 0.9625,-0.251527 2.5375,-0.251527 3.5,0 0.9625,0.251528 0.175,0.457323 -1.75,0.457323 -1.925,0 -2.7125,-0.205795 -1.75,-0.457323 z m 7.02083,-0.914841 c 0.33229,-0.332291 1.19479,-0.367818 1.91667,-0.07895 0.79773,0.319226 0.56078,0.556183 -0.60417,0.604167 -1.05416,0.04342 -1.64479,-0.192928 -1.3125,-0.52522 z M 351,38.059017 c 0,-0.517541 0.44485,-1.215913 0.98855,-1.551938 0.56686,-0.350339 0.7345,0.05106 0.39301,0.940983 C 351.71677,39.180479 351,39.497449 351,38.059017 Z m -35.26879,-2.139176 c 0.35361,-1.352204 0.8069,-1.805497 1.05655,-1.056551 0.24048,0.721441 -0.0382,1.787158 -0.61931,2.36826 -0.74207,0.742068 -0.87221,0.351636 -0.43724,-1.311709 z M 137.97019,35.055694 c 0.57231,-1.069369 1.53482,-2.249775 2.13891,-2.623124 0.6041,-0.373349 0.32492,0.501588 -0.62038,1.944306 -2.00162,3.054861 -3.03812,3.518198 -1.51853,0.678818 z m 191.10876,0.527639 c -0.0434,-1.054166 0.19293,-1.644791 0.52522,-1.3125 0.33229,0.332292 0.36781,1.194792 0.0789,1.916667 -0.31922,0.797733 -0.55618,0.560776 -0.60416,-0.604167 z M 35.872445,34.25 C 34.628574,32.663944 34.663944,32.628574 36.25,33.872445 37.915748,35.178814 38.445479,36 37.622445,36 c -0.207656,0 -0.995156,-0.7875 -1.75,-1.75 z M 246.40499,33.75 244.5,31.5 l 2.25,1.904988 c 1.2375,1.047743 2.25,2.060243 2.25,2.25 0,0.800253 -0.80479,0.209457 -2.59501,-1.904988 z m 48.03614,0.694834 C 292.61082,32.978456 292.64273,32.957643 295,34.080288 298.06103,35.5381 298.62834,36 297.3578,36 c -0.53655,0 -1.84905,-0.699825 -2.91667,-1.555166 z M 364.87244,34.25 c -1.24387,-1.586056 -1.2085,-1.621426 0.37756,-0.377555 0.9625,0.754844 1.75,1.542344 1.75,1.75 0,0.823034 -0.82119,0.293303 -2.12756,-1.372445 z m -214,-1 C 149.62857,31.663944 149.66394,31.628574 151.25,32.872445 152.91575,34.178814 153.44548,35 152.62244,35 c -0.20765,0 -0.99515,-0.7875 -1.75,-1.75 z m 99.39839,1.145833 c 0.3323,-0.332291 1.19479,-0.367818 1.91667,-0.07895 0.79773,0.319226 0.56078,0.556183 -0.60417,0.604167 -1.05416,0.04342 -1.64479,-0.192928 -1.3125,-0.52522 z M 216,29.04381 v -4.956191 l -7.25,-0.345112 -7.25,-0.345113 7.75,-0.198697 L 217,23 v 5.5 c 0,3.025 -0.225,5.5 -0.5,5.5 -0.275,0 -0.5,-2.230286 -0.5,-4.95619 z m 74.11011,2.588869 c -0.87116,-1.049686 -0.72537,-1.677321 0.62756,-2.701772 1.49005,-1.128275 1.57288,-1.12155 0.53612,0.04353 -0.89768,1.008795 -0.93186,1.732644 -0.12755,2.701771 C 291.7505,32.404293 292.01989,33 291.74489,33 c -0.275,0 -1.01065,-0.615295 -1.63478,-1.367321 z M 379.14426,30.25 c -1.0912,-2.550044 -1.06651,-2.608858 0.33949,-0.80887 0.83394,1.067621 1.51625,2.305121 1.51625,2.75 0,1.519907 -0.67833,0.81036 -1.85574,-1.94113 z M 306.75,31.294267 c 1.2375,-0.238353 3.2625,-0.238353 4.5,0 1.2375,0.238353 0.225,0.433369 -2.25,0.433369 -2.475,0 -3.4875,-0.195016 -2.25,-0.433369 z M 220.5,29 c 0.99549,-1.1 2.03498,-2 2.30998,-2 0.275,0 -0.31449,0.9 -1.30998,2 -0.99549,1.1 -2.03498,2 -2.30998,2 -0.275,0 0.31449,-0.9 1.30998,-2 z M 49.036245,28.067725 c -0.568767,-1.062752 -1.968512,-2.22884 -3.110544,-2.591307 -1.142032,-0.362467 -1.856051,-0.879402 -1.586708,-1.148744 0.825686,-0.825687 4.553062,1.602113 5.673272,3.695244 C 50.594222,29.110313 50.845368,30 50.570368,30 c -0.275,0 -0.965356,-0.869524 -1.534123,-1.932275 z M 127.5,28 c 0.99549,-1.1 2.03498,-2 2.30998,-2 0.275,0 -0.31449,0.9 -1.30998,2 -0.99549,1.1 -2.03498,2 -2.30998,2 -0.275,0 0.31449,-0.9 1.30998,-2 z M 325.40499,27.75 323.5,25.5 l 2.25,1.904988 c 1.2375,1.047743 2.25,2.060243 2.25,2.25 0,0.800253 -0.80479,0.209457 -2.59501,-1.904988 z m -299.091336,-2 c 1.049353,-0.9625 2.645561,-1.721476 3.54713,-1.686614 1.036336,0.04007 0.739564,0.422692 -0.806915,1.04033 -1.345371,0.537318 -2.94158,1.296294 -3.54713,1.686613 C 24.90119,27.180648 25.264301,26.7125 26.313654,25.75 Z m 67.54713,0.309351 C 95.159215,24.926708 96.696715,24 97.277451,24 98.50717,24 98.44843,24.049954 94.5,26.36201 l -3,1.756691 z M 355.31365,25.75 c 1.04936,-0.9625 2.64557,-1.721476 3.54713,-1.686614 1.03634,0.04007 0.73957,0.422692 -0.80691,1.04033 -1.34537,0.537318 -2.94158,1.296294 -3.54713,1.686613 -0.60555,0.390319 -0.24244,-0.07783 0.80691,-1.040329 z M 148.5,25.463885 c -1.65,-0.755522 -2.29851,-1.393974 -1.44113,-1.418781 0.85738,-0.02481 2.43238,0.615584 3.5,1.423093 2.37041,1.792884 1.86374,1.791823 -2.05887,-0.0043 z m 76.23333,0.412027 c 0.67834,-0.683418 1.48524,-0.990671 1.79313,-0.682784 0.30789,0.307887 -0.24711,0.867048 -1.23333,1.242579 -1.4252,0.542685 -1.54006,0.427821 -0.5598,-0.559795 z M 252,26 c -0.90129,-0.58246 -1.02463,-0.975486 -0.30902,-0.984687 0.65504,-0.0084 1.4691,0.434687 1.80902,0.984687 0.7673,1.241525 0.42112,1.241525 -1.5,0 z M 112.5,25 c -1.63041,-0.70061 -1.68751,-0.872418 -0.30902,-0.929715 C 113.12102,24.031628 114.16008,24.45 114.5,25 c 0.71066,1.149879 0.67591,1.149879 -2,0 z M 297,25.04569 c 0.825,-0.558286 2.3625,-1.021955 3.41667,-1.030377 2.55844,-0.02044 1.76026,0.551916 -1.91667,1.374387 -2.19092,0.490074 -2.59546,0.397296 -1.5,-0.34401 z M 374,25 c -0.90129,-0.58246 -1.02463,-0.975486 -0.30902,-0.984687 0.65504,-0.0084 1.4691,0.434687 1.80902,0.984687 0.7673,1.241525 0.42112,1.241525 -1.5,0 z M 228.27083,24.395833 c 0.3323,-0.332291 1.19479,-0.367818 1.91667,-0.07895 0.79773,0.319226 0.56078,0.556183 -0.60417,0.604167 -1.05416,0.04342 -1.64479,-0.192928 -1.3125,-0.52522 z m 19,0 c 0.3323,-0.332291 1.19479,-0.367818 1.91667,-0.07895 0.79773,0.319226 0.56078,0.556183 -0.60417,0.604167 -1.05416,0.04342 -1.64479,-0.192928 -1.3125,-0.52522 z m 71,0 c 0.33229,-0.332291 1.19479,-0.367818 1.91667,-0.07895 0.79773,0.319226 0.56078,0.556183 -0.60417,0.604167 -1.05416,0.04342 -1.64479,-0.192928 -1.3125,-0.52522 z M 34.232091,23.285474 c 1.50265,-0.228174 4.20265,-0.232767 6,-0.0102 C 42.029441,23.49783 40.8,23.684518 37.5,23.690131 c -3.3,0.0056 -4.770559,-0.176483 -3.267909,-0.404657 z M 102.25,23.283746 c 1.5125,-0.229125 3.9875,-0.229125 5.5,0 1.5125,0.229124 0.275,0.41659 -2.75,0.41659 -3.025,0 -4.2625,-0.187466 -2.75,-0.41659 z m 36.5,0.01052 c 1.2375,-0.238353 3.2625,-0.238353 4.5,0 1.2375,0.238353 0.225,0.433369 -2.25,0.433369 -2.475,0 -3.4875,-0.195016 -2.25,-0.433369 z m 37.02643,-0.02776 c 2.35204,-0.211245 5.95204,-0.208273 8,0.0066 2.04796,0.214878 0.12357,0.387715 -4.27643,0.384083 -4.4,-0.0036 -6.07561,-0.179441 -3.72357,-0.390687 z m 59.95127,0.01177 c 1.77523,-0.220912 4.92523,-0.224542 7,-0.0081 2.07476,0.216475 0.6223,0.397221 -3.2277,0.401658 -3.85,0.0044 -5.54754,-0.17268 -3.7723,-0.393592 z m 70.5223,-0.0067 c 2.0625,-0.215745 5.4375,-0.215745 7.5,0 2.0625,0.215744 0.375,0.392262 -3.75,0.392262 -4.125,0 -5.8125,-0.176518 -3.75,-0.392262 z m 57,0.01221 c 1.5125,-0.229125 3.9875,-0.229125 5.5,0 1.5125,0.229124 0.275,0.41659 -2.75,0.41659 -3.025,0 -4.2625,-0.187466 -2.75,-0.41659 z M 264.28601,18.5 c 0.008,-2.75 0.20172,-3.756313 0.43157,-2.23625 0.22986,1.520062 0.22371,3.770062 -0.0136,5 C 264.46657,22.493687 264.27851,21.25 264.28601,18.5 Z m 12.54932,-2.002098 C 276.6509,12.921748 276.8375,9.9967484 277.25,9.9979022 277.6625,9.999056 278,12.925 278,16.5 c 0,3.575 -0.1866,6.5 -0.41467,6.5 -0.22807,0 -0.56557,-2.925944 -0.75,-6.502098 z M 58.654988,18.171259 c -1.801731,-1.990889 -2.118206,-4.891912 -0.766391,-7.025246 0.555812,-0.87714 0.814554,-0.01536 0.734687,2.446979 -0.100865,3.109762 0.33134,4.03524 2.376716,5.089246 1.573972,0.811085 1.909189,1.293739 0.904988,1.30302 -0.877257,0.0081 -2.339757,-0.808191 -3.25,-1.813999 z M 65,19.616631 c 0,-0.210852 0.900621,-0.618886 2.00138,-0.906741 1.100759,-0.287855 1.749201,-0.115339 1.440983,0.383369 C 67.904112,19.964167 65,20.405705 65,19.616631 Z m 3.75,-8.783298 C 67.7875,9.825 67.3949,9 67.877555,9 c 1.008568,0 3.605677,2.892189 3.014946,3.357499 C 70.676625,12.527541 69.7125,11.841667 68.75,10.833333 Z M 63.270833,8.3958333 c 0.332292,-0.3322916 1.194792,-0.3678179 1.916667,-0.078947 0.797733,0.3192263 0.560776,0.5561827 -0.604167,0.6041666 -1.054166,0.043421 -1.644791,-0.1929276 -1.3125,-0.5252196 z"
       id="path14"
       inkscape:connector-curvature="0" />
  </g>
</svg>
