<svg width="199" height="48" viewBox="0 0 199 48" fill="none" xmlns="http://www.w3.org/2000/svg">
<path d="M20.7039 26.7127C19.5371 28.7123 17.9036 30.3786 15.4427 30.514C12.6211 30.7536 10.5209 29.66 9.11014 27.2439C6.63865 23.0156 4.15655 18.7977 1.65324 14.5903C-3.10942 6.64407 9.16317 -0.23989 13.7349 7.77925C16.0473 11.6743 18.243 15.6838 20.6827 19.4955C23.4299 15.3506 25.5832 10.7474 28.4578 6.6649C32.0536 2.10336 40.0727 4.4362 40.6455 10.06C41.1971 13.1115 39.0014 15.6005 37.6118 18.1208C35.798 21.2347 33.9629 24.3382 32.1279 27.4418C30.9505 29.4309 29.1685 30.5036 26.8455 30.5869C24.0452 30.7327 21.9661 29.0664 20.7039 26.7127ZM22.7405 23.151C23.5042 24.2653 23.9709 25.5567 24.9149 26.494C26.3257 27.5876 28.1714 27.1918 29.1048 25.5984C30.5156 23.1927 31.9263 20.7973 33.3477 18.3916C34.4297 16.5586 35.501 14.7257 36.5829 12.8927C36.9436 12.2783 37.1982 11.643 37.1769 10.9244C37.1239 7.748 32.5734 6.49827 30.9399 9.22686C30.2186 10.3516 29.5397 11.518 28.8609 12.674C26.8243 16.1941 24.8407 19.6309 22.7405 23.151ZM18.6142 23.151C15.8564 18.4332 13.1409 13.6842 10.2663 9.0394C8.3252 6.28998 3.71105 8.18541 4.27323 11.518C5.74764 15.2152 8.28277 18.4853 10.1603 22.0262C10.9346 23.328 11.6559 24.6611 12.4939 25.9317C13.5546 27.5459 15.9518 27.5042 16.9913 25.8796C17.5641 24.9944 18.0733 24.0779 18.6142 23.151Z" fill="black"/>
<path fill-rule="evenodd" clip-rule="evenodd" d="M1.43224 9.22943C0.936741 10.6987 1.03585 12.4447 2.14509 14.2954L2.14605 14.297C4.65029 18.506 7.13316 22.7252 9.6052 26.9544C10.266 28.0862 11.0699 28.8785 12.0108 29.3653C12.9519 29.8523 14.0703 30.0548 15.3939 29.9424L15.4024 29.9417L15.4109 29.9412C17.5859 29.8216 19.0793 28.3581 20.2081 26.4236L20.7248 25.5383L21.2092 26.4416C22.4028 28.6672 24.3045 30.1448 26.8154 30.014L26.8247 30.0135C28.9505 29.9373 30.5551 28.9722 31.634 27.1496C33.4679 24.0479 35.301 20.9477 37.1125 17.8378C37.412 17.2952 37.748 16.7535 38.0774 16.2225C38.1391 16.1231 38.2005 16.0242 38.2613 15.9256C38.6533 15.2913 39.0284 14.6682 39.3423 14.0348C39.9689 12.7708 40.3256 11.517 40.0807 10.1621L40.0768 10.1403L40.0745 10.1182C39.8173 7.59307 37.884 5.76262 35.5286 5.09494C33.1802 4.42924 30.5424 4.95782 28.9175 7.00816C27.5017 9.02057 26.2595 11.1655 25.0208 13.3407C24.9126 13.5307 24.8044 13.7209 24.6962 13.9113C23.5662 15.8984 22.4262 17.9031 21.1606 19.8125L20.674 20.5467L20.1992 19.8048C18.5773 17.2708 17.0571 14.6399 15.5468 12.0261C14.7797 10.6987 14.0153 9.37572 13.2414 8.07215L13.2362 8.06346C12.1719 6.19661 10.6839 5.2281 9.13145 4.90464C7.5647 4.57821 5.89138 4.90119 4.47464 5.69786C3.05767 6.49466 1.93283 7.7451 1.43224 9.22943ZM14.2305 7.49071C13.0091 5.3508 11.2498 4.17394 9.36548 3.78136C7.49415 3.39147 5.53979 3.78253 3.91225 4.69773C2.28494 5.61281 0.9489 7.07209 0.345003 8.86277C-0.263908 10.6683 -0.111199 12.7624 1.16049 14.8846C3.66265 19.0901 6.14376 23.3062 8.61448 27.5332C9.36441 28.8176 10.3162 29.7804 11.4835 30.3844C12.6484 30.9872 13.988 31.212 15.4826 31.0864C17.8613 30.9523 19.5094 29.5291 20.6901 27.8076C22.0545 29.862 24.1359 31.3007 26.8704 31.1601C29.3884 31.0685 31.3461 29.8884 32.6214 27.734L32.6219 27.7331C34.4567 24.6301 36.2925 21.5252 38.1073 18.4096L38.1107 18.4038L38.114 18.3978C38.3988 17.8814 38.7179 17.3668 39.0488 16.8333C39.1113 16.7325 39.1743 16.631 39.2374 16.5288C39.6307 15.8922 40.0307 15.2298 40.3704 14.5444C41.0482 13.1769 41.5125 11.6676 41.2137 9.9799C40.8892 6.89304 38.5314 4.75353 35.8415 3.99103C33.1428 3.22604 29.9788 3.80846 28.007 6.30977L27.9974 6.32195L27.9885 6.33464C26.5335 8.40096 25.2644 10.5943 24.0237 12.7729C23.916 12.962 23.8086 13.151 23.7012 13.3397C22.7169 15.0707 21.7421 16.7847 20.6887 18.4338C19.2591 16.1575 17.9111 13.8244 16.5588 11.4839C15.7894 10.1523 15.0186 8.81816 14.2305 7.49071ZM6.1121 7.46761C7.62832 6.84237 9.57663 7.06816 10.7348 8.70855L10.7448 8.72274L10.7539 8.73752C13.0115 12.3854 15.172 16.0989 17.3272 19.8032C17.921 20.8239 18.5144 21.8438 19.1093 22.8615L19.2784 23.1508L19.1095 23.4402C18.9829 23.6572 18.8569 23.8755 18.7306 24.0945C18.3256 24.7965 17.9172 25.5043 17.4735 26.1901C16.2153 28.1546 13.3091 28.2167 12.0144 26.2471C11.4332 25.3658 10.9011 24.4444 10.3795 23.5413C10.141 23.1284 9.90471 22.7193 9.66696 22.3195L9.65976 22.3075L9.65317 22.295C8.94253 20.9548 8.13904 19.6581 7.324 18.3428C7.07493 17.9409 6.82477 17.5372 6.57586 17.13C5.52005 15.4027 4.49623 13.6266 3.74011 11.7306L3.71746 11.6738L3.70729 11.6135C3.37222 9.62722 4.59525 8.09311 6.1121 7.46761ZM4.82952 11.3645C5.54562 13.144 6.5166 14.833 7.55486 16.5315C7.79536 16.925 8.04002 17.3198 8.28579 17.7164C9.10249 19.0342 9.93136 20.3717 10.6603 21.7451C10.9118 22.1682 11.1543 22.5881 11.3946 23.0043C11.907 23.8917 12.41 24.7629 12.9725 25.6158L12.9731 25.6166C13.7997 26.8747 15.6867 26.8539 16.5079 25.5704L16.5094 25.568C16.936 24.9088 17.3243 24.2356 17.7262 23.5391C17.8002 23.4108 17.8747 23.2817 17.95 23.1518C17.409 22.2255 16.8698 21.2988 16.3309 20.3726C14.18 16.6755 12.0329 12.9851 9.78783 9.35679C9.0036 8.25966 7.68047 8.06199 6.54952 8.52836C5.43093 8.98963 4.63483 10.0453 4.82952 11.3645ZM34.8021 7.30788C36.3358 7.72691 37.7168 9.01298 37.7503 10.9113C37.775 11.7815 37.4633 12.5258 37.0775 13.1832L37.0768 13.1844C36.5361 14.1003 35.9981 15.0162 35.4598 15.9328L35.4585 15.9349C34.9207 16.8506 34.3825 17.7669 33.8415 18.6832C32.4205 21.0885 31.01 23.4834 29.5996 25.8884C28.503 27.7604 26.2659 28.2673 24.5632 26.9475L24.5355 26.926L24.5105 26.9012C23.9812 26.3757 23.5974 25.7626 23.2614 25.173C23.1677 25.0086 23.0787 24.8479 22.9914 24.6906C22.7554 24.2648 22.5328 23.8631 22.267 23.4754L22.0594 23.1724L22.2476 22.8571C24.207 19.5729 26.065 16.3611 27.9616 13.0824C28.0955 12.8509 28.2297 12.619 28.364 12.3868L28.3659 12.3836C28.4229 12.2865 28.48 12.1892 28.5372 12.0918C29.157 11.0355 29.7865 9.96277 30.4521 8.92434C31.4322 7.29572 33.2691 6.88905 34.8021 7.30788ZM34.4997 8.41471C33.3382 8.09739 32.0865 8.42816 31.4319 9.52158L31.4273 9.52915L31.4226 9.53659C30.7682 10.5571 30.1486 11.6129 29.5252 12.6751C29.4689 12.7711 29.4126 12.8671 29.3562 12.9631C29.2221 13.1948 29.0883 13.4262 28.9546 13.6573C27.1178 16.8326 25.3131 19.9524 23.4167 23.1367C23.6334 23.4812 23.8307 23.8372 24.0176 24.1745C24.0996 24.3224 24.1795 24.4667 24.2583 24.6049C24.576 25.1623 24.8911 25.6547 25.2937 26.0617C26.4088 26.9032 27.8456 26.6126 28.6096 25.3084C30.0207 22.9021 31.4319 20.506 32.8536 18.0998C33.3941 17.184 33.9321 16.2681 34.4704 15.3516L34.4714 15.35C35.0092 14.4343 35.5474 13.5181 36.0883 12.6017C36.423 12.0314 36.6199 11.5065 36.6033 10.9414L36.6031 10.934C36.5818 9.65787 35.6618 8.73224 34.4997 8.41471Z" fill="black"/>
<path d="M71.4758 4.60975L64.7061 29.0494C64.5531 29.6359 64.2471 30.1076 63.7882 30.4645C63.3547 30.8215 62.832 31 62.2201 31H55.8329C55.1954 31 54.6472 30.8215 54.1882 30.4645C53.7548 30.1076 53.4743 29.6359 53.3468 29.0494L46.5389 4.60975H53.9205L57.9747 22.624C58.0767 23.1084 58.1787 23.6056 58.2806 24.1156C58.3826 24.6255 58.4719 25.1228 58.5484 25.6072H59.4663C59.5428 25.1228 59.632 24.6255 59.734 24.1156C59.836 23.6056 59.938 23.1084 60.04 22.624L64.0941 4.60975H71.4758ZM81.0088 4.60975V31H73.8949V4.60975H81.0088ZM108.991 4.60975V28.4757C108.991 30.1586 108.162 31 106.505 31H103.292C102.527 31 101.953 30.8215 101.571 30.4645C101.214 30.1076 100.844 29.5849 100.462 28.8964L93.998 17.6519C93.692 17.0144 93.3861 16.326 93.0801 15.5866C92.7741 14.8471 92.5191 14.1077 92.3152 13.3683H91.9709C92.0729 14.1077 92.1494 14.8726 92.2004 15.6631C92.2769 16.428 92.3152 17.1674 92.3152 17.8814V31H85.622V7.13404C85.622 5.45118 86.4634 4.60975 88.1463 4.60975H91.3207C92.0857 4.60975 92.6466 4.78824 93.0036 5.14521C93.3606 5.50217 93.743 6.02488 94.151 6.71332L100.347 17.5371C100.704 18.1491 101.048 18.8248 101.38 19.5642C101.711 20.3037 102.03 21.0813 102.336 21.8973H102.68C102.604 21.1068 102.54 20.3292 102.489 19.5642C102.438 18.7993 102.412 18.0344 102.412 17.2694L102.374 4.60975H108.991ZM124.651 4.0743C126.843 4.0743 128.692 4.29103 130.196 4.72449C131.701 5.15796 132.925 5.89739 133.868 6.9428C134.812 7.96272 135.487 9.35235 135.895 11.1117C136.303 12.871 136.507 15.1021 136.507 17.8049C136.507 20.4821 136.303 22.7132 135.895 24.4981C135.487 26.2574 134.812 27.6598 133.868 28.7052C132.925 29.7251 131.701 30.4518 130.196 30.8853C128.692 31.3187 126.843 31.5355 124.651 31.5355C122.483 31.5355 120.635 31.3187 119.105 30.8853C117.601 30.4518 116.377 29.7251 115.433 28.7052C114.49 27.6598 113.814 26.2574 113.406 24.4981C112.998 22.7132 112.794 20.4821 112.794 17.8049C112.794 15.1021 112.998 12.871 113.406 11.1117C113.814 9.35235 114.49 7.96272 115.433 6.9428C116.377 5.89739 117.601 5.15796 119.105 4.72449C120.635 4.29103 122.483 4.0743 124.651 4.0743ZM124.651 9.54358C123.529 9.54358 122.649 9.77306 122.012 10.232C121.4 10.691 120.966 11.5197 120.711 12.7181C120.456 13.9165 120.329 15.6121 120.329 17.8049C120.329 19.9977 120.456 21.6933 120.711 22.8917C120.966 24.0901 121.4 24.9188 122.012 25.3777C122.649 25.8367 123.529 26.0662 124.651 26.0662C125.773 26.0662 126.64 25.8367 127.251 25.3777C127.889 24.9188 128.322 24.0901 128.552 22.8917C128.807 21.6933 128.934 19.9977 128.934 17.8049C128.934 15.6121 128.807 13.9165 128.552 12.7181C128.322 11.5197 127.889 10.691 127.251 10.232C126.64 9.77306 125.773 9.54358 124.651 9.54358ZM162.685 4.60975L155.916 29.0494C155.763 29.6359 155.457 30.1076 154.998 30.4645C154.564 30.8215 154.042 31 153.43 31H147.042C146.405 31 145.857 30.8215 145.398 30.4645C144.964 30.1076 144.684 29.6359 144.556 29.0494L137.748 4.60975H145.13L149.184 22.624C149.286 23.1084 149.388 23.6056 149.49 24.1156C149.592 24.6255 149.681 25.1228 149.758 25.6072H150.676C150.752 25.1228 150.842 24.6255 150.944 24.1156C151.046 23.6056 151.147 23.1084 151.249 22.624L155.304 4.60975H162.685ZM170.803 4.49501C172.282 4.49501 173.786 4.49501 175.316 4.49501C176.872 4.49501 178.389 4.53326 179.868 4.60975C181.372 4.66075 182.749 4.76274 183.998 4.91573L183.654 10.0408H173.786C173.225 10.0408 172.792 10.1938 172.486 10.4997C172.18 10.7802 172.027 11.1754 172.027 11.6854V23.9244C172.027 24.4343 172.18 24.8423 172.486 25.1482C172.792 25.4287 173.225 25.569 173.786 25.569H183.654L183.998 30.694C182.749 30.8215 181.372 30.9235 179.868 31C178.389 31.051 176.872 31.0765 175.316 31.0765C173.786 31.102 172.282 31.1147 170.803 31.1147C169.044 31.1147 167.616 30.592 166.519 29.5466C165.423 28.5012 164.875 27.1371 164.875 25.4542V10.1555C164.875 8.44717 165.423 7.08304 166.519 6.06313C167.616 5.01772 169.044 4.49501 170.803 4.49501ZM165.563 14.9746H182.277V19.832H165.563V14.9746Z" fill="black"/>
<path d="M186.245 5.28619V4.13857H191.199V5.28619H189.344V10.833H188.101V5.28619H186.245ZM192.138 10.833V4.13857H193.535L195.113 8.31781L196.69 4.13857H198.087V10.833H196.844V6.70158L195.562 10.2209H194.663L193.382 6.70158V10.833H192.138Z" fill="#3F3F3F"/>
<path d="M128.688 36.5904H130.338L128.15 44.9585H126.572L125.054 40.0333L123.536 44.9585H121.958L119.77 36.5904H121.42L122.819 42.7469L124.385 37.4751H125.724L127.29 42.7469L128.688 36.5904ZM131.453 36.5904H136.629V38.025H133.007V39.7823H135.912V41.2168H133.007V43.524H136.749V44.9585H131.453V36.5904ZM141.294 44.9585V36.5904H143.04L145.012 41.8145L146.985 36.5904H148.73V44.9585H147.176V39.7942L145.574 44.1934H144.45L142.848 39.7942V44.9585H141.294ZM150.435 36.5904H155.611V38.025H151.989V39.7823H154.894V41.2168H151.989V43.524H155.731V44.9585H150.435V36.5904ZM162.017 44.9585L161.407 42.986H158.754L158.144 44.9585H156.47L159.303 36.5904H160.858L163.691 44.9585H162.017ZM160.08 38.6466L159.196 41.5515H160.965L160.08 38.6466ZM169.446 36.5904H171V44.9585H169.362L166.29 39.4356V44.9585H164.736V36.5904H166.374L169.446 42.1134V36.5904ZM177.672 36.5904V44.9585H176.118V36.5904H177.672ZM179.002 38.025V36.5904H185.195V38.025H182.875V44.9585H181.321V38.025H179.002Z" fill="#3F3F3F"/>
</svg>
